<?xml version="1.0" standalone="no"?>
<!DOCTYPE svg PUBLIC "-//W3C//DTD SVG 20010904//EN"
 "http://www.w3.org/TR/2001/REC-SVG-20010904/DTD/svg10.dtd">
<svg version="1.0" xmlns="http://www.w3.org/2000/svg"
 width="16.000000pt" height="16.000000pt" viewBox="0 0 16.000000 16.000000"
 preserveAspectRatio="xMidYMid meet">
<metadata>
Created by potrace 1.11, written by Peter Selinger 2001-2013
</metadata>
<g transform="translate(0.000000,16.000000) scale(0.001333,-0.001333)"
fill="#000000" stroke="none">
<path d="M6038 11004 c-2 -2 -44 -6 -93 -9 -50 -3 -143 -12 -208 -20 -65 -9
-141 -18 -170 -21 -29 -3 -55 -7 -58 -9 -3 -2 -28 -7 -55 -10 -135 -18 -439
-93 -634 -156 -781 -256 -1318 -673 -1582 -1230 -63 -133 -125 -325 -142 -441
-3 -21 -9 -62 -13 -90 -10 -65 -10 -414 -1 -483 29 -213 79 -412 145 -569 68
-161 204 -379 305 -486 18 -20 49 -62 68 -94 57 -94 172 -246 242 -319 36 -37
108 -132 159 -210 52 -78 102 -151 112 -162 17 -19 16 -19 -30 -33 -132 -40
-323 -105 -360 -122 -24 -11 -45 -20 -48 -20 -25 0 -331 -155 -444 -225 -99
-61 -258 -177 -331 -241 -62 -54 -216 -211 -254 -258 -17 -21 -43 -53 -58 -70
-114 -135 -275 -431 -348 -641 -41 -121 -95 -321 -105 -392 -3 -21 -8 -49 -11
-61 -3 -13 -7 -40 -10 -60 -2 -21 -8 -66 -13 -102 -9 -66 -6 -521 3 -575 3
-16 8 -55 12 -85 3 -30 8 -58 10 -61 2 -4 6 -24 10 -45 22 -151 133 -465 196
-556 10 -14 18 -29 18 -32 0 -22 188 -290 242 -346 13 -14 54 -70 90 -125 79
-120 131 -188 226 -293 39 -43 120 -151 179 -239 124 -185 162 -232 294 -363
272 -271 660 -486 1085 -603 168 -47 287 -74 404 -92 52 -8 104 -17 115 -19
46 -9 166 -22 305 -33 123 -10 598 -9 720 1 52 4 115 9 140 11 25 2 59 6 75 9
17 3 59 8 95 11 71 6 397 60 470 76 25 6 56 13 70 15 23 4 216 49 250 58 282
77 404 115 620 194 389 143 784 325 1141 527 177 100 206 118 312 198 123 93
214 217 249 342 16 58 17 191 1 260 -27 121 -66 197 -208 409 -188 280 -214
316 -250 347 -31 28 -65 80 -65 100 0 17 -70 127 -111 173 -24 27 -67 64 -96
83 -29 18 -53 39 -53 46 0 7 -27 42 -60 79 -44 49 -79 76 -128 100 -61 30 -74
33 -162 33 -132 0 -246 -38 -415 -139 -22 -13 -85 -49 -140 -80 -55 -31 -107
-61 -115 -66 -44 -28 -403 -203 -515 -252 -211 -92 -632 -250 -698 -262 -7 -1
-50 -14 -97 -28 -206 -64 -649 -162 -825 -183 -48 -6 -75 -9 -148 -20 -133
-18 -519 -25 -657 -12 -88 9 -231 33 -278 46 -18 5 -33 9 -35 9 -1 0 -34 9
-73 21 l-71 21 -9 65 c-10 66 -10 379 -1 425 3 14 8 41 11 60 11 68 54 209 87
282 74 162 192 325 333 457 27 25 57 53 65 61 76 72 259 190 411 265 340 168
703 253 1145 270 254 10 322 15 460 34 242 33 456 97 594 178 87 51 173 138
210 212 17 34 29 61 27 61 -3 0 0 15 5 32 25 89 30 290 9 378 -15 62 -63 164
-96 203 -13 15 -30 42 -39 60 -8 18 -28 48 -45 67 -17 19 -36 49 -44 65 -8 17
-25 42 -37 55 -12 14 -41 55 -65 92 -23 36 -66 89 -94 117 -36 36 -59 70 -80
122 -32 79 -71 134 -140 194 -47 42 -96 90 -169 169 -116 125 -264 218 -461
292 -36 13 -74 28 -85 34 -34 16 -389 121 -662 195 -78 22 -401 131 -456 154
l-48 21 6 117 c4 64 8 120 10 123 2 4 7 28 11 55 3 27 17 82 30 122 82 252
285 473 549 598 178 84 267 112 505 160 8 1 40 6 70 10 30 4 62 9 70 10 14 3
94 11 200 20 58 6 428 5 500 0 63 -4 161 -13 240 -21 159 -15 521 -78 700
-120 58 -14 113 -27 123 -29 39 -8 336 -98 422 -127 125 -43 285 -109 425
-176 196 -93 206 -97 278 -121 93 -32 171 -40 231 -25 63 17 171 61 192 80 8
8 20 14 26 14 18 0 135 90 176 134 61 67 82 119 82 206 -1 87 -3 91 -145 305
-131 196 -226 332 -275 390 -23 28 -56 78 -73 113 -28 56 -82 133 -152 217
-61 74 -443 448 -513 503 -162 129 -408 273 -607 357 -36 15 -83 35 -105 45
-103 44 -458 152 -580 176 -11 2 -76 15 -145 29 -69 13 -142 27 -164 30 -21 2
-56 7 -77 10 -88 13 -186 24 -354 41 -73 7 -671 14 -677 8z"/>
</g>
</svg>
