<?xml version="1.0" encoding="UTF-8" standalone="no"?><!DOCTYPE svg PUBLIC "-//W3C//DTD SVG 1.1//EN" "http://www.w3.org/Graphics/SVG/1.1/DTD/svg11.dtd"><svg width="100%" height="100%" viewBox="0 0 176 292" version="1.1" xmlns="http://www.w3.org/2000/svg" xmlns:xlink="http://www.w3.org/1999/xlink" xml:space="preserve" style="fill-rule:evenodd;clip-rule:evenodd;stroke-linejoin:round;stroke-miterlimit:1.41421;"><g id="The-Bulb"><g><path d="M137.978,224.159c0,-5.334 -4.331,-9.665 -9.665,-9.665l-80.67,0c-5.334,0 -9.665,4.331 -9.665,9.665c0,5.334 4.331,9.665 9.665,9.665l80.67,0c5.334,0 9.665,-4.331 9.665,-9.665Z" style="fill:#53b643;"/><path d="M133.925,253.793c0,-4.901 -3.98,-8.881 -8.882,-8.881l-74.13,0c-4.902,0 -8.882,3.98 -8.882,8.881c0,4.902 3.98,8.882 8.882,8.882l74.13,0c4.902,0 8.882,-3.98 8.882,-8.882Z" style="fill:#53b643;"/><path d="M61.256,272.918c-1.431,0 -2.754,0.758 -3.477,1.992c-0.723,1.235 -0.737,2.76 -0.037,4.007c4.21,7.568 16.156,13.03 30.236,13.03c14.14,0 26.127,-5.508 30.282,-13.13c0.677,-1.231 0.655,-2.728 -0.06,-3.938c-0.715,-1.21 -2.016,-1.952 -3.421,-1.952c-11.886,-0.009 -41.56,-0.009 -53.523,-0.009Z" style="fill:#53b643;"/></g><path d="M20.423,145.029c-12.553,-15.21 -20.423,-35.809 -20.423,-57.051c0,-48.556 39.422,-87.978 87.978,-87.978c48.556,0 87.978,39.422 87.978,87.978c0,21.322 -7.615,41.816 -20.253,57.051c-9.015,16.577 -14.779,32.719 -16.889,49.517c-0.753,5.979 -5.837,10.463 -11.862,10.463c-19.149,0.02 -58.349,0.02 -77.682,0.02c-6.124,0 -11.259,-4.628 -11.893,-10.719c-1.757,-17.266 -7.6,-33.21 -16.954,-49.281Z" style="fill:#53b643;"/></g></svg>