<?xml version="1.0" encoding="UTF-8" standalone="no"?><!DOCTYPE svg PUBLIC "-//W3C//DTD SVG 1.1//EN" "http://www.w3.org/Graphics/SVG/1.1/DTD/svg11.dtd"><svg width="100%" height="100%" viewBox="0 0 500 500" version="1.1" xmlns="http://www.w3.org/2000/svg" xmlns:xlink="http://www.w3.org/1999/xlink" xml:space="preserve" style="fill-rule:evenodd;clip-rule:evenodd;stroke-linejoin:round;stroke-miterlimit:1.41421;"><g><g><path d="M208.627,331.768c-1.988,1.457 -4.032,2.853 -6.134,4.189c-7.762,4.932 -15.868,9.062 -24.318,12.388c-8.45,3.327 -17.034,5.831 -25.752,7.514c-8.718,1.682 -17.168,2.523 -25.35,2.523c-9.024,0 -17.512,-1.051 -25.465,-3.154c-7.953,-2.103 -14.912,-5.315 -20.876,-9.636c-5.965,-4.32 -10.687,-9.788 -14.167,-16.403c-3.479,-6.614 -5.219,-14.472 -5.219,-23.572c0,-7.723 1.396,-15.141 4.187,-22.253c2.791,-7.112 7.112,-13.421 12.962,-18.927c5.85,-5.505 13.344,-9.941 22.482,-13.305c9.139,-3.365 20.093,-5.2 32.864,-5.506c-8.412,0 -15.753,-1.205 -22.024,-3.614c-6.271,-2.408 -11.471,-5.658 -15.6,-9.75c-4.129,-4.091 -7.226,-8.87 -9.291,-14.338c-2.065,-5.468 -3.097,-11.26 -3.097,-17.378c0,-5.735 0.994,-10.974 2.982,-15.715c1.988,-4.741 4.722,-9.004 8.202,-12.79c3.479,-3.785 7.589,-7.092 12.331,-9.922c4.741,-2.829 9.883,-5.181 15.428,-7.054c5.544,-1.874 11.356,-3.288 17.435,-4.244c6.079,-0.956 12.216,-1.434 18.41,-1.434c8.947,0 17.703,0.975 26.268,2.925c8.565,1.95 16.174,4.875 22.827,8.775c6.653,3.9 12.006,8.775 16.059,14.625c4.053,5.85 -1.123,10.972 -9.246,13.822c-4.168,1.463 -11.784,-3.365 -15.76,-5.047c-3.977,-1.682 -8.47,-3.212 -13.478,-4.588c-5.009,-1.377 -10.343,-2.505 -16.002,-3.384c-5.659,-0.879 -11.241,-1.319 -16.747,-1.319c-5.124,0 -10.018,0.459 -14.683,1.376c-4.664,0.918 -8.775,2.428 -12.33,4.531c-3.556,2.103 -6.386,4.875 -8.489,8.316c-2.103,3.442 -3.154,7.686 -3.154,12.733c0,4.129 0.745,7.609 2.237,10.438c1.491,2.83 3.479,5.238 5.964,7.227c2.486,1.988 5.334,3.613 8.546,4.875c3.212,1.261 6.538,2.389 9.979,3.384c3.442,0.994 6.825,1.95 10.152,2.867c3.326,0.918 6.385,1.969 9.176,3.155c2.792,1.185 5.143,2.619 7.055,4.301c1.912,1.682 6.734,4.961 4.473,15.944c-2.26,10.984 -24.967,11.586 -27.644,11.586c-6.117,0 -12.12,0.784 -18.009,2.351c-5.888,1.568 -11.164,3.9 -15.829,6.997c-4.665,3.097 -8.431,6.921 -11.299,11.471c-2.867,4.55 -4.301,9.846 -4.301,15.887c0,5.735 0.822,10.514 2.466,14.338c1.644,3.824 3.9,6.902 6.768,9.234c2.867,2.332 6.251,3.996 10.151,4.99c3.9,0.994 8.106,1.491 12.618,1.491c5.429,0 11.126,-0.535 17.091,-1.606c5.965,-1.071 11.91,-2.543 17.837,-4.416c5.926,-1.874 11.7,-4.091 17.321,-6.653c5.62,-2.562 10.839,-5.315 15.657,-8.259c4.818,-2.944 9.062,-6.041 12.732,-9.291c1.117,-0.989 2.155,-1.979 3.115,-2.971l0.097,-0.757c0.612,-4.741 1.319,-9.578 2.122,-14.511c0.803,-4.932 1.644,-9.654 2.524,-14.166c0.098,-0.502 0.196,-0.999 0.294,-1.491c0.785,-3.935 1.586,-7.567 2.401,-10.897c0.918,-3.747 1.759,-6.806 2.524,-9.177c0.765,-2.447 1.491,-4.397 2.179,-5.85c0.689,-1.453 1.472,-2.581 2.352,-3.384c0.879,-0.803 1.931,-1.338 3.154,-1.605c1.224,-0.268 2.791,-0.402 4.703,-0.402c2.906,0 5.181,0.096 6.825,0.287c1.644,0.191 2.868,0.65 3.671,1.376c0.803,0.727 1.281,1.778 1.434,3.155c0.153,1.376 0.229,3.25 0.229,5.62c0,1.3 -0.057,2.792 -0.172,4.474c-0.115,1.682 -0.287,3.479 -0.516,5.391c-0.229,1.912 -0.478,3.881 -0.746,5.907c-0.267,2.027 -0.554,3.996 -0.86,5.908c-0.688,4.512 -1.415,9.176 -2.179,13.994l1.261,1.377c0.153,-0.23 0.975,-1.683 2.467,-4.359c1.491,-2.677 3.326,-5.889 5.505,-9.636c2.18,-3.747 4.531,-7.666 7.055,-11.757c2.523,-4.091 4.932,-7.705 7.226,-10.84c2.218,-3.135 4.57,-5.735 7.055,-7.8c2.485,-2.065 5.448,-3.097 8.89,-3.097c3.211,0 5.964,0.937 8.258,2.81c2.295,1.874 3.442,4.531 3.442,7.972c0,2.983 -0.192,5.812 -0.574,8.489c-0.382,2.676 -0.86,5.276 -1.434,7.8c-0.573,2.523 -1.166,4.99 -1.778,7.398c-0.611,2.409 -1.185,4.875 -1.72,7.399c-0.383,1.759 -0.612,2.868 -0.688,3.326c-0.077,0.459 -0.115,0.765 -0.115,0.918l1.262,1.377c0.153,-0.23 1.032,-1.664 2.638,-4.302c1.606,-2.638 3.575,-5.831 5.907,-9.578c2.333,-3.747 4.818,-7.685 7.456,-11.815c2.638,-4.129 5.105,-7.762 7.399,-10.897c2.217,-3.059 4.435,-5.64 6.653,-7.743c2.217,-2.102 4.932,-3.154 8.144,-3.154c3.594,0 6.634,0.937 9.119,2.81c2.485,1.874 3.728,4.531 3.728,7.972c0,5.277 -0.268,10.286 -0.803,15.027c-0.535,4.741 -1.147,9.406 -1.835,13.994c-0.689,4.588 -1.3,9.234 -1.836,13.937c-0.535,4.703 -0.803,9.693 -0.803,14.969c0,4.13 0.536,7.494 1.606,10.094c1.071,2.6 2.371,3.9 3.9,3.9c1.606,0 3.289,-0.344 5.047,-1.032c1.759,-0.688 3.556,-1.568 5.392,-2.638c1.835,-1.071 3.632,-2.313 5.391,-3.728c0.92,-0.74 1.819,-1.496 2.698,-2.268c-0.728,-4.309 -1.092,-8.658 -1.092,-13.045c0,-8.412 1.262,-16.27 3.785,-23.573c2.524,-7.303 6.137,-13.65 10.84,-19.041c4.703,-5.391 10.457,-9.635 17.263,-12.732c6.806,-3.097 14.453,-4.646 22.941,-4.646c7.265,0 14.071,1.128 20.418,3.384c6.347,2.256 12.293,5.276 17.837,9.062c5.544,3.785 10.706,8.125 15.485,13.019c4.78,4.894 6.652,6.668 5.257,8.828c-7.372,11.411 -13.125,4.639 -17.064,1.58c-3.938,-3.059 -4.385,-3.392 -8.209,-6.107c-3.823,-2.714 -7.112,-4.989 -9.865,-6.825l-4.902,-2.746c4.579,4.729 7.866,13.127 8.974,18.06c1.109,4.932 1.664,9.654 1.664,14.166c0,4.512 -0.497,9.062 -1.491,13.65c-0.995,4.588 -2.428,9.024 -4.302,13.306c-1.874,4.282 -4.168,8.297 -6.882,12.044c-2.715,3.747 -5.812,6.997 -9.292,9.75c-3.479,2.753 -7.283,4.933 -11.413,6.538c-4.129,1.606 -8.526,2.409 -13.191,2.409c-6.73,0 -12.484,-1.472 -17.263,-4.416c-4.78,-2.944 -8.699,-6.787 -11.758,-11.528c-0.255,-0.396 -0.505,-0.796 -0.748,-1.201c-0.535,0.455 -1.07,0.913 -1.603,1.373c-3.327,2.868 -6.844,5.468 -10.553,7.8c-3.709,2.333 -7.781,4.244 -12.217,5.735c-4.435,1.492 -9.444,2.237 -15.026,2.237c-2.753,0 -5.066,-0.898 -6.94,-2.695c-1.873,-1.797 -3.384,-4.302 -4.531,-7.514c-1.147,-3.211 -1.969,-6.997 -2.466,-11.356c-0.497,-4.358 -0.746,-9.1 -0.746,-14.223c0,-4.818 0.173,-9.922 0.517,-15.313c0.344,-5.392 0.822,-10.84 1.433,-16.346l-1.72,0l-23.286,59.303c-1.988,3.212 -4.205,5.372 -6.653,6.481c-2.447,1.109 -5.276,1.663 -8.488,1.663c-2.447,0 -4.397,-0.669 -5.85,-2.007c-1.453,-1.338 -2.581,-3.059 -3.384,-5.162c-0.803,-2.103 -1.338,-4.416 -1.606,-6.94c-0.267,-2.523 -0.401,-4.97 -0.401,-7.341c0,-0.994 0.076,-2.409 0.229,-4.244c0.153,-1.835 0.383,-3.938 0.689,-6.309c0.306,-2.37 0.65,-4.875 1.032,-7.513c0.382,-2.638 0.765,-5.257 1.147,-7.858c0.841,-6.117 1.874,-12.694 3.097,-19.729l-1.72,0c-0.918,1.147 -1.97,2.868 -3.155,5.162c-1.185,2.294 -2.848,5.659 -4.99,10.094c-2.141,4.435 -4.875,10.19 -8.201,17.263c-3.327,7.074 -7.628,15.925 -12.905,26.555c-1.529,3.135 -3.307,5.257 -5.333,6.366c-2.027,1.109 -4.264,1.663 -6.711,1.663c-3.135,0 -5.659,-0.669 -7.57,-2.007c-1.912,-1.338 -3.384,-3.135 -4.417,-5.391c-1.032,-2.256 -1.72,-4.818 -2.064,-7.686l-0.06,-0.518Zm188.694,-6.421c2.6,0 5.124,-1.32 7.571,-3.958c2.447,-2.638 4.588,-5.964 6.424,-9.979c1.835,-4.015 3.307,-8.45 4.416,-13.306c1.109,-4.856 1.663,-9.502 1.663,-13.937c0,-3.518 -0.268,-6.787 -0.803,-9.807c-0.535,-3.021 -1.338,-5.64 -2.409,-7.858c-1.07,-2.217 -2.447,-3.976 -4.129,-5.276c-1.683,-1.3 -3.709,-1.95 -6.08,-1.95c-3.135,0 -6.117,1.338 -8.947,4.014c-2.829,2.677 -5.314,6.099 -7.456,10.267c-2.141,4.167 -3.823,8.775 -5.047,13.822c-1.223,5.047 -1.835,9.903 -1.835,14.568c0,3.211 0.306,6.232 0.918,9.061c0.611,2.83 1.567,5.296 2.867,7.399c1.3,2.103 3.021,3.785 5.162,5.047c2.141,1.262 4.703,1.893 7.685,1.893Z" style="fill:#f6304a;"/><path d="M205.565,326.932c-1.987,1.456 -4.032,2.853 -6.134,4.188c-7.762,4.933 -15.868,9.062 -24.318,12.389c-8.45,3.326 -17.034,5.831 -25.752,7.513c-8.717,1.682 -17.167,2.524 -25.35,2.524c-9.023,0 -17.512,-1.052 -25.465,-3.155c-7.952,-2.103 -14.911,-5.315 -20.876,-9.635c-5.965,-4.321 -10.687,-9.789 -14.166,-16.403c-3.48,-6.615 -5.219,-14.472 -5.219,-23.572c0,-7.724 1.395,-15.142 4.186,-22.254c2.792,-7.111 7.112,-13.42 12.962,-18.926c5.85,-5.506 13.344,-9.941 22.483,-13.306c9.138,-3.365 20.092,-5.2 32.863,-5.506c-8.412,0 -15.753,-1.204 -22.024,-3.613c-6.27,-2.409 -11.47,-5.659 -15.6,-9.75c-4.129,-4.091 -7.226,-8.871 -9.291,-14.339c-2.065,-5.467 -3.097,-11.26 -3.097,-17.378c0,-5.735 0.994,-10.973 2.982,-15.714c1.989,-4.742 4.722,-9.005 8.202,-12.79c3.479,-3.785 7.59,-7.093 12.331,-9.922c4.741,-2.83 9.884,-5.181 15.428,-7.055c5.544,-1.873 11.356,-3.288 17.435,-4.244c6.08,-0.956 12.216,-1.434 18.411,-1.434c8.947,0 17.703,0.975 26.267,2.925c8.565,1.95 16.174,4.875 22.827,8.775c6.653,3.9 12.006,8.775 16.059,14.626c4.053,5.85 -1.123,10.971 -9.246,13.822c-4.167,1.462 -11.784,-3.365 -15.76,-5.047c-3.977,-1.683 -8.469,-3.212 -13.478,-4.589c-5.009,-1.376 -10.343,-2.504 -16.002,-3.384c-5.659,-0.879 -11.241,-1.319 -16.747,-1.319c-5.123,0 -10.018,0.459 -14.682,1.377c-4.665,0.917 -8.775,2.428 -12.331,4.531c-3.556,2.103 -6.386,4.875 -8.488,8.316c-2.103,3.441 -3.155,7.685 -3.155,12.732c0,4.13 0.746,7.609 2.237,10.439c1.491,2.829 3.479,5.238 5.965,7.226c2.485,1.988 5.333,3.613 8.545,4.875c3.212,1.262 6.538,2.39 9.98,3.384c3.441,0.994 6.825,1.95 10.151,2.868c3.327,0.917 6.386,1.969 9.177,3.154c2.791,1.185 5.142,2.619 7.054,4.302c1.912,1.682 6.734,4.96 4.474,15.944c-2.261,10.983 -24.968,11.585 -27.645,11.585c-6.117,0 -12.12,0.784 -18.008,2.352c-5.889,1.567 -11.165,3.9 -15.83,6.997c-4.665,3.097 -8.431,6.92 -11.299,11.47c-2.867,4.55 -4.301,9.846 -4.301,15.887c0,5.735 0.822,10.515 2.466,14.338c1.644,3.824 3.9,6.902 6.768,9.234c2.868,2.333 6.251,3.996 10.151,4.99c3.9,0.994 8.106,1.491 12.618,1.491c5.43,0 11.127,-0.535 17.091,-1.606c5.965,-1.07 11.911,-2.542 17.837,-4.416c5.927,-1.873 11.7,-4.091 17.321,-6.653c5.62,-2.562 10.84,-5.315 15.657,-8.259c4.818,-2.944 9.062,-6.041 12.733,-9.291c1.116,-0.988 2.154,-1.978 3.115,-2.97l0.096,-0.758c0.612,-4.741 1.32,-9.578 2.123,-14.51c0.802,-4.933 1.644,-9.655 2.523,-14.166c0.098,-0.502 0.196,-0.999 0.294,-1.492c0.786,-3.934 1.586,-7.566 2.402,-10.897c0.917,-3.747 1.759,-6.806 2.523,-9.176c0.765,-2.447 1.491,-4.397 2.18,-5.85c0.688,-1.453 1.472,-2.581 2.351,-3.384c0.88,-0.803 1.931,-1.338 3.155,-1.606c1.223,-0.268 2.791,-0.401 4.703,-0.401c2.905,0 5.18,0.095 6.825,0.286c1.644,0.191 2.867,0.65 3.67,1.377c0.803,0.726 1.281,1.778 1.434,3.154c0.153,1.377 0.229,3.25 0.229,5.621c0,1.3 -0.057,2.791 -0.172,4.473c-0.114,1.683 -0.286,3.48 -0.516,5.392c-0.229,1.911 -0.478,3.88 -0.745,5.907c-0.268,2.026 -0.555,3.996 -0.861,5.907c-0.688,4.512 -1.414,9.177 -2.179,13.994l1.262,1.377c0.153,-0.229 0.975,-1.682 2.466,-4.359c1.491,-2.676 3.326,-5.888 5.506,-9.635c2.179,-3.747 4.531,-7.666 7.054,-11.758c2.524,-4.091 4.933,-7.704 7.227,-10.839c2.217,-3.136 4.569,-5.736 7.054,-7.8c2.485,-2.065 5.449,-3.097 8.89,-3.097c3.212,0 5.965,0.936 8.259,2.81c2.294,1.873 3.441,4.531 3.441,7.972c0,2.982 -0.191,5.812 -0.574,8.488c-0.382,2.677 -0.86,5.277 -1.433,7.8c-0.574,2.524 -1.167,4.99 -1.778,7.399c-0.612,2.409 -1.186,4.875 -1.721,7.398c-0.382,1.759 -0.612,2.868 -0.688,3.327c-0.077,0.459 -0.115,0.765 -0.115,0.917l1.262,1.377c0.153,-0.229 1.032,-1.663 2.638,-4.302c1.606,-2.638 3.575,-5.83 5.907,-9.578c2.333,-3.747 4.818,-7.685 7.456,-11.814c2.639,-4.13 5.105,-7.762 7.399,-10.897c2.218,-3.059 4.435,-5.64 6.653,-7.743c2.218,-2.103 4.932,-3.154 8.144,-3.154c3.594,0 6.634,0.936 9.119,2.81c2.486,1.873 3.728,4.531 3.728,7.972c0,5.276 -0.267,10.285 -0.803,15.026c-0.535,4.742 -1.147,9.406 -1.835,13.995c-0.688,4.588 -1.3,9.234 -1.835,13.936c-0.536,4.703 -0.803,9.693 -0.803,14.97c0,4.129 0.535,7.494 1.606,10.094c1.07,2.6 2.37,3.9 3.9,3.9c1.606,0 3.288,-0.344 5.047,-1.033c1.759,-0.688 3.556,-1.567 5.391,-2.638c1.835,-1.07 3.632,-2.313 5.391,-3.728c0.92,-0.74 1.819,-1.496 2.698,-2.268c-0.728,-4.309 -1.092,-8.657 -1.092,-13.045c0,-8.412 1.262,-16.269 3.785,-23.572c2.524,-7.303 6.137,-13.65 10.84,-19.041c4.703,-5.392 10.457,-9.636 17.263,-12.733c6.806,-3.097 14.453,-4.645 22.942,-4.645c7.264,0 14.07,1.127 20.417,3.383c6.348,2.256 12.293,5.277 17.837,9.062c5.544,3.785 10.706,8.125 15.486,13.019c4.779,4.894 6.651,6.668 5.256,8.829c-7.371,11.41 -13.125,4.638 -17.063,1.579c-3.939,-3.059 -4.386,-3.391 -8.21,-6.106c-3.823,-2.715 -7.111,-4.99 -9.864,-6.825l-4.903,-2.746c4.579,4.729 7.866,13.127 8.975,18.059c1.109,4.932 1.663,9.655 1.663,14.166c0,4.512 -0.497,9.062 -1.491,13.65c-0.994,4.589 -2.428,9.024 -4.302,13.306c-1.873,4.283 -4.167,8.297 -6.882,12.045c-2.715,3.747 -5.812,6.997 -9.291,9.75c-3.48,2.753 -7.284,4.932 -11.414,6.538c-4.129,1.606 -8.526,2.409 -13.191,2.409c-6.729,0 -12.484,-1.472 -17.263,-4.417c-4.78,-2.944 -8.699,-6.786 -11.758,-11.528c-0.255,-0.395 -0.505,-0.795 -0.748,-1.2c-0.535,0.455 -1.069,0.912 -1.603,1.373c-3.327,2.867 -6.844,5.467 -10.553,7.8c-3.709,2.332 -7.781,4.244 -12.216,5.735c-4.436,1.491 -9.444,2.237 -15.027,2.237c-2.753,0 -5.066,-0.899 -6.94,-2.696c-1.873,-1.797 -3.383,-4.301 -4.53,-7.513c-1.148,-3.212 -1.97,-6.997 -2.467,-11.356c-0.497,-4.359 -0.745,-9.1 -0.745,-14.224c0,-4.817 0.172,-9.922 0.516,-15.313c0.344,-5.391 0.822,-10.84 1.434,-16.346l-1.721,0l-23.285,59.304c-1.989,3.211 -4.206,5.372 -6.653,6.48c-2.447,1.109 -5.277,1.664 -8.489,1.664c-2.447,0 -4.397,-0.669 -5.85,-2.008c-1.452,-1.338 -2.58,-3.059 -3.383,-5.161c-0.803,-2.103 -1.339,-4.417 -1.606,-6.94c-0.268,-2.524 -0.402,-4.971 -0.402,-7.341c0,-0.995 0.077,-2.409 0.23,-4.245c0.153,-1.835 0.382,-3.938 0.688,-6.308c0.306,-2.371 0.65,-4.875 1.032,-7.514c0.383,-2.638 0.765,-5.257 1.147,-7.857c0.842,-6.118 1.874,-12.694 3.097,-19.73l-1.72,0c-0.918,1.147 -1.969,2.868 -3.155,5.162c-1.185,2.294 -2.848,5.659 -4.989,10.094c-2.142,4.436 -4.875,10.19 -8.202,17.264c-3.326,7.073 -7.628,15.925 -12.904,26.554c-1.53,3.136 -3.308,5.258 -5.334,6.366c-2.027,1.109 -4.263,1.664 -6.711,1.664c-3.135,0 -5.658,-0.669 -7.57,-2.008c-1.912,-1.338 -3.384,-3.135 -4.416,-5.391c-1.033,-2.256 -1.721,-4.818 -2.065,-7.685l-0.06,-0.518Zm188.695,-6.422c2.6,0 5.123,-1.319 7.57,-3.957c2.447,-2.639 4.589,-5.965 6.424,-9.98c1.835,-4.015 3.307,-8.45 4.416,-13.306c1.109,-4.856 1.663,-9.501 1.663,-13.937c0,-3.517 -0.267,-6.786 -0.803,-9.807c-0.535,-3.021 -1.338,-5.64 -2.408,-7.857c-1.071,-2.218 -2.448,-3.977 -4.13,-5.277c-1.682,-1.3 -3.709,-1.95 -6.079,-1.95c-3.136,0 -6.118,1.338 -8.947,4.015c-2.83,2.676 -5.315,6.098 -7.456,10.266c-2.142,4.168 -3.824,8.775 -5.047,13.822c-1.224,5.047 -1.836,9.903 -1.836,14.568c0,3.212 0.306,6.232 0.918,9.062c0.612,2.829 1.568,5.295 2.868,7.398c1.3,2.103 3.02,3.786 5.161,5.047c2.142,1.262 4.703,1.893 7.686,1.893Z" style="fill:#bd5ed4;"/><path d="M202.503,322.095c-1.987,1.457 -4.032,2.853 -6.134,4.189c-7.762,4.932 -15.868,9.062 -24.318,12.388c-8.45,3.327 -17.034,5.831 -25.751,7.513c-8.718,1.683 -17.168,2.524 -25.35,2.524c-9.024,0 -17.512,-1.052 -25.465,-3.154c-7.953,-2.103 -14.912,-5.315 -20.877,-9.636c-5.965,-4.32 -10.687,-9.788 -14.166,-16.403c-3.48,-6.615 -5.219,-14.472 -5.219,-23.572c0,-7.724 1.395,-15.141 4.187,-22.253c2.791,-7.112 7.111,-13.421 12.961,-18.927c5.85,-5.506 13.345,-9.941 22.483,-13.306c9.138,-3.364 20.093,-5.2 32.863,-5.505c-8.412,0 -15.753,-1.205 -22.023,-3.614c-6.271,-2.409 -11.471,-5.659 -15.6,-9.75c-4.13,-4.091 -7.227,-8.87 -9.292,-14.338c-2.064,-5.468 -3.097,-11.26 -3.097,-17.378c0,-5.735 0.994,-10.974 2.983,-15.715c1.988,-4.741 4.722,-9.004 8.201,-12.79c3.48,-3.785 7.59,-7.092 12.331,-9.922c4.741,-2.829 9.884,-5.181 15.428,-7.054c5.544,-1.874 11.356,-3.288 17.435,-4.244c6.08,-0.956 12.217,-1.434 18.411,-1.434c8.947,0 17.703,0.975 26.268,2.925c8.564,1.95 16.173,4.875 22.826,8.775c6.653,3.9 12.006,8.775 16.059,14.625c4.053,5.85 -1.123,10.972 -9.245,13.822c-4.168,1.463 -11.784,-3.365 -15.761,-5.047c-3.976,-1.682 -8.469,-3.212 -13.478,-4.588c-5.009,-1.377 -10.343,-2.505 -16.001,-3.384c-5.659,-0.88 -11.242,-1.319 -16.748,-1.319c-5.123,0 -10.017,0.459 -14.682,1.376c-4.665,0.918 -8.775,2.428 -12.331,4.531c-3.556,2.103 -6.385,4.875 -8.488,8.316c-2.103,3.442 -3.155,7.686 -3.155,12.733c0,4.129 0.746,7.609 2.237,10.438c1.491,2.829 3.48,5.238 5.965,7.227c2.485,1.988 5.334,3.613 8.545,4.875c3.212,1.261 6.539,2.389 9.98,3.383c3.441,0.995 6.825,1.95 10.151,2.868c3.327,0.918 6.386,1.969 9.177,3.155c2.791,1.185 5.143,2.619 7.054,4.301c1.912,1.682 6.735,4.961 4.474,15.944c-2.261,10.984 -24.968,11.586 -27.644,11.586c-6.118,0 -12.121,0.783 -18.009,2.351c-5.888,1.568 -11.165,3.9 -15.83,6.997c-4.664,3.097 -8.431,6.921 -11.298,11.471c-2.868,4.55 -4.302,9.845 -4.302,15.887c0,5.735 0.822,10.514 2.466,14.338c1.645,3.823 3.9,6.901 6.768,9.234c2.868,2.332 6.252,3.995 10.152,4.99c3.9,0.994 8.106,1.491 12.617,1.491c5.43,0 11.127,-0.536 17.092,-1.606c5.964,-1.071 11.91,-2.543 17.836,-4.416c5.927,-1.874 11.701,-4.092 17.321,-6.653c5.621,-2.562 10.84,-5.315 15.658,-8.259c4.817,-2.944 9.061,-6.041 12.732,-9.291c1.116,-0.989 2.154,-1.979 3.115,-2.971l0.097,-0.757c0.612,-4.742 1.319,-9.578 2.122,-14.511c0.803,-4.932 1.644,-9.654 2.523,-14.166c0.098,-0.502 0.196,-0.999 0.295,-1.491c0.785,-3.935 1.585,-7.567 2.401,-10.897c0.918,-3.747 1.759,-6.806 2.523,-9.177c0.765,-2.447 1.492,-4.397 2.18,-5.85c0.688,-1.453 1.472,-2.581 2.351,-3.384c0.88,-0.803 1.931,-1.338 3.155,-1.606c1.223,-0.267 2.791,-0.401 4.703,-0.401c2.906,0 5.181,0.096 6.825,0.287c1.644,0.191 2.867,0.65 3.67,1.376c0.803,0.727 1.281,1.778 1.434,3.155c0.153,1.376 0.23,3.25 0.23,5.62c0,1.3 -0.058,2.791 -0.172,4.474c-0.115,1.682 -0.287,3.479 -0.517,5.391c-0.229,1.912 -0.478,3.881 -0.745,5.907c-0.268,2.027 -0.555,3.996 -0.86,5.908c-0.689,4.512 -1.415,9.176 -2.18,13.994l1.262,1.376c0.153,-0.229 0.975,-1.682 2.466,-4.358c1.491,-2.677 3.327,-5.889 5.506,-9.636c2.179,-3.747 4.531,-7.666 7.054,-11.757c2.524,-4.091 4.933,-7.705 7.227,-10.84c2.218,-3.135 4.569,-5.735 7.054,-7.8c2.486,-2.065 5.449,-3.097 8.89,-3.097c3.212,0 5.965,0.937 8.259,2.81c2.294,1.874 3.441,4.531 3.441,7.972c0,2.983 -0.191,5.812 -0.573,8.489c-0.383,2.676 -0.861,5.276 -1.434,7.8c-0.574,2.523 -1.166,4.989 -1.778,7.398c-0.612,2.409 -1.185,4.875 -1.721,7.399c-0.382,1.759 -0.611,2.867 -0.688,3.326c-0.076,0.459 -0.115,0.765 -0.115,0.918l1.262,1.376c0.153,-0.229 1.032,-1.663 2.638,-4.301c1.606,-2.638 3.575,-5.831 5.908,-9.578c2.332,-3.747 4.817,-7.685 7.456,-11.815c2.638,-4.129 5.104,-7.762 7.398,-10.897c2.218,-3.059 4.436,-5.64 6.653,-7.743c2.218,-2.103 4.933,-3.154 8.144,-3.154c3.594,0 6.634,0.937 9.12,2.81c2.485,1.874 3.727,4.531 3.727,7.972c0,5.277 -0.267,10.286 -0.802,15.027c-0.536,4.741 -1.148,9.406 -1.836,13.994c-0.688,4.588 -1.3,9.234 -1.835,13.937c-0.535,4.703 -0.803,9.693 -0.803,14.969c0,4.13 0.535,7.494 1.606,10.094c1.07,2.6 2.37,3.9 3.9,3.9c1.606,0 3.288,-0.344 5.047,-1.032c1.759,-0.688 3.556,-1.568 5.391,-2.638c1.835,-1.071 3.633,-2.314 5.391,-3.728c0.921,-0.74 1.82,-1.496 2.698,-2.268c-0.728,-4.309 -1.092,-8.658 -1.092,-13.046c0,-8.411 1.262,-16.269 3.786,-23.572c2.523,-7.303 6.136,-13.65 10.839,-19.041c4.703,-5.391 10.458,-9.635 17.264,-12.732c6.806,-3.098 14.453,-4.646 22.941,-4.646c7.265,0 14.071,1.128 20.418,3.384c6.347,2.256 12.292,5.276 17.837,9.062c5.544,3.785 10.705,8.125 15.485,13.019c4.779,4.894 6.652,6.668 5.256,8.828c-7.371,11.41 -13.125,4.639 -17.063,1.58c-3.938,-3.059 -4.386,-3.392 -8.209,-6.107c-3.824,-2.714 -7.112,-4.989 -9.865,-6.825l-4.902,-2.746c4.579,4.729 7.865,13.127 8.974,18.06c1.109,4.932 1.663,9.654 1.663,14.166c0,4.512 -0.497,9.062 -1.491,13.65c-0.994,4.588 -2.428,9.023 -4.301,13.306c-1.874,4.282 -4.168,8.297 -6.883,12.044c-2.715,3.747 -5.812,6.997 -9.291,9.75c-3.48,2.753 -7.284,4.932 -11.413,6.538c-4.13,1.606 -8.527,2.409 -13.192,2.409c-6.729,0 -12.483,-1.472 -17.263,-4.416c-4.779,-2.944 -8.699,-6.787 -11.757,-11.528c-0.256,-0.396 -0.505,-0.796 -0.749,-1.201c-0.535,0.455 -1.069,0.913 -1.603,1.373c-3.326,2.868 -6.844,5.468 -10.553,7.8c-3.709,2.332 -7.781,4.244 -12.216,5.735c-4.435,1.492 -9.444,2.237 -15.027,2.237c-2.753,0 -5.066,-0.898 -6.939,-2.695c-1.874,-1.798 -3.384,-4.302 -4.531,-7.514c-1.147,-3.212 -1.969,-6.997 -2.466,-11.356c-0.497,-4.359 -0.746,-9.1 -0.746,-14.223c0,-4.818 0.172,-9.922 0.516,-15.314c0.344,-5.391 0.822,-10.839 1.434,-16.345l-1.721,0l-23.285,59.303c-1.988,3.212 -4.206,5.372 -6.653,6.481c-2.447,1.109 -5.276,1.663 -8.488,1.663c-2.447,0 -4.397,-0.669 -5.85,-2.007c-1.453,-1.338 -2.581,-3.059 -3.384,-5.162c-0.803,-2.103 -1.338,-4.416 -1.606,-6.94c-0.268,-2.523 -0.401,-4.97 -0.401,-7.341c0,-0.994 0.076,-2.409 0.229,-4.244c0.153,-1.835 0.382,-3.938 0.688,-6.309c0.306,-2.371 0.65,-4.875 1.033,-7.513c0.382,-2.638 0.764,-5.258 1.147,-7.858c0.841,-6.117 1.873,-12.694 3.097,-19.729l-1.721,0c-0.918,1.147 -1.969,2.868 -3.154,5.162c-1.186,2.294 -2.849,5.658 -4.99,10.094c-2.141,4.435 -4.875,10.19 -8.202,17.263c-3.326,7.074 -7.628,15.925 -12.904,26.555c-1.53,3.135 -3.307,5.257 -5.334,6.366c-2.026,1.109 -4.263,1.663 -6.71,1.663c-3.136,0 -5.659,-0.669 -7.571,-2.007c-1.912,-1.338 -3.384,-3.136 -4.416,-5.391c-1.032,-2.256 -1.721,-4.818 -2.065,-7.686l-0.06,-0.518Zm188.695,-6.422c2.6,0 5.123,-1.319 7.571,-3.957c2.447,-2.638 4.588,-5.965 6.423,-9.979c1.835,-4.015 3.307,-8.45 4.416,-13.306c1.109,-4.856 1.664,-9.502 1.664,-13.937c0,-3.518 -0.268,-6.787 -0.803,-9.808c-0.536,-3.02 -1.339,-5.639 -2.409,-7.857c-1.071,-2.218 -2.447,-3.976 -4.13,-5.276c-1.682,-1.3 -3.708,-1.95 -6.079,-1.95c-3.135,0 -6.118,1.338 -8.947,4.014c-2.83,2.677 -5.315,6.099 -7.456,10.267c-2.141,4.167 -3.824,8.775 -5.047,13.822c-1.224,5.047 -1.835,9.903 -1.835,14.567c0,3.212 0.305,6.233 0.917,9.062c0.612,2.83 1.568,5.296 2.868,7.399c1.3,2.103 3.02,3.785 5.162,5.047c2.141,1.262 4.703,1.892 7.685,1.892Z" style="fill:#53b643;"/><path d="M199.441,317.259c-1.987,1.456 -4.032,2.852 -6.134,4.188c-7.761,4.933 -15.867,9.062 -24.317,12.389c-8.45,3.326 -17.034,5.83 -25.752,7.513c-8.718,1.682 -17.168,2.523 -25.35,2.523c-9.024,0 -17.512,-1.051 -25.465,-3.154c-7.953,-2.103 -14.912,-5.315 -20.877,-9.635c-5.964,-4.321 -10.686,-9.789 -14.166,-16.403c-3.479,-6.615 -5.219,-14.473 -5.219,-23.573c0,-7.723 1.396,-15.141 4.187,-22.253c2.791,-7.111 7.112,-13.42 12.962,-18.926c5.85,-5.506 13.344,-9.941 22.482,-13.306c9.138,-3.365 20.093,-5.2 32.864,-5.506c-8.412,0 -15.754,-1.204 -22.024,-3.613c-6.271,-2.409 -11.471,-5.659 -15.6,-9.75c-4.13,-4.092 -7.227,-8.871 -9.291,-14.339c-2.065,-5.467 -3.097,-11.26 -3.097,-17.378c0,-5.735 0.994,-10.973 2.982,-15.714c1.988,-4.742 4.722,-9.005 8.201,-12.79c3.48,-3.786 7.59,-7.093 12.331,-9.922c4.742,-2.83 9.884,-5.181 15.428,-7.055c5.544,-1.873 11.356,-3.288 17.436,-4.244c6.079,-0.956 12.216,-1.434 18.41,-1.434c8.947,0 17.703,0.975 26.268,2.925c8.565,1.95 16.173,4.875 22.826,8.775c6.653,3.9 12.006,8.775 16.059,14.625c4.053,5.85 -1.123,10.972 -9.245,13.822c-4.168,1.463 -11.784,-3.364 -15.761,-5.047c-3.976,-1.682 -8.469,-3.211 -13.478,-4.588c-5.008,-1.376 -10.342,-2.504 -16.001,-3.384c-5.659,-0.879 -11.241,-1.319 -16.747,-1.319c-5.124,0 -10.018,0.459 -14.683,1.377c-4.664,0.917 -8.775,2.428 -12.331,4.531c-3.556,2.103 -6.385,4.875 -8.488,8.316c-2.103,3.441 -3.154,7.685 -3.154,12.732c0,4.13 0.745,7.609 2.236,10.438c1.492,2.83 3.48,5.239 5.965,7.227c2.485,1.988 5.334,3.613 8.546,4.875c3.212,1.262 6.538,2.39 9.979,3.384c3.441,0.994 6.825,1.95 10.152,2.868c3.326,0.917 6.385,1.969 9.176,3.154c2.791,1.185 5.143,2.619 7.055,4.301c1.911,1.683 6.734,4.961 4.473,15.945c-2.261,10.983 -24.968,11.585 -27.644,11.585c-6.118,0 -12.121,0.784 -18.009,2.351c-5.888,1.568 -11.165,3.9 -15.829,6.998c-4.665,3.097 -8.431,6.92 -11.299,11.47c-2.868,4.55 -4.302,9.846 -4.302,15.887c0,5.735 0.823,10.515 2.467,14.338c1.644,3.824 3.9,6.902 6.767,9.234c2.868,2.333 6.252,3.996 10.152,4.99c3.9,0.994 8.106,1.491 12.618,1.491c5.429,0 11.126,-0.535 17.091,-1.606c5.965,-1.07 11.91,-2.542 17.837,-4.416c5.926,-1.873 11.7,-4.091 17.32,-6.653c5.621,-2.562 10.84,-5.315 15.658,-8.259c4.817,-2.944 9.062,-6.041 12.732,-9.291c1.116,-0.988 2.155,-1.978 3.115,-2.97l0.097,-0.758c0.612,-4.741 1.319,-9.578 2.122,-14.51c0.803,-4.933 1.644,-9.655 2.524,-14.167c0.097,-0.501 0.195,-0.999 0.294,-1.491c0.785,-3.934 1.586,-7.567 2.401,-10.897c0.918,-3.747 1.759,-6.806 2.524,-9.176c0.764,-2.447 1.491,-4.397 2.179,-5.85c0.688,-1.453 1.472,-2.581 2.352,-3.384c0.879,-0.803 1.931,-1.339 3.154,-1.606c1.224,-0.268 2.791,-0.402 4.703,-0.402c2.906,0 5.181,0.096 6.825,0.287c1.644,0.191 2.868,0.65 3.671,1.377c0.803,0.726 1.281,1.778 1.434,3.154c0.152,1.377 0.229,3.25 0.229,5.621c0,1.3 -0.057,2.791 -0.172,4.473c-0.115,1.683 -0.287,3.48 -0.516,5.391c-0.23,1.912 -0.478,3.881 -0.746,5.908c-0.268,2.026 -0.554,3.995 -0.86,5.907c-0.688,4.512 -1.415,9.177 -2.18,13.994l1.262,1.377c0.153,-0.23 0.975,-1.683 2.466,-4.359c1.492,-2.676 3.327,-5.888 5.506,-9.635c2.18,-3.747 4.531,-7.667 7.055,-11.758c2.523,-4.091 4.932,-7.704 7.226,-10.84c2.218,-3.135 4.569,-5.735 7.055,-7.8c2.485,-2.064 5.448,-3.097 8.889,-3.097c3.212,0 5.965,0.937 8.259,2.811c2.294,1.873 3.441,4.531 3.441,7.972c0,2.982 -0.191,5.812 -0.573,8.488c-0.382,2.677 -0.86,5.277 -1.434,7.8c-0.573,2.524 -1.166,4.99 -1.778,7.399c-0.612,2.408 -1.185,4.875 -1.72,7.398c-0.383,1.759 -0.612,2.868 -0.689,3.327c-0.076,0.459 -0.114,0.764 -0.114,0.917l1.261,1.377c0.153,-0.23 1.033,-1.663 2.639,-4.302c1.606,-2.638 3.575,-5.831 5.907,-9.578c2.332,-3.747 4.818,-7.685 7.456,-11.814c2.638,-4.13 5.104,-7.762 7.398,-10.898c2.218,-3.058 4.436,-5.639 6.653,-7.742c2.218,-2.103 4.933,-3.155 8.145,-3.155c3.594,0 6.633,0.937 9.119,2.811c2.485,1.873 3.728,4.531 3.728,7.972c0,5.276 -0.268,10.285 -0.803,15.026c-0.536,4.742 -1.147,9.406 -1.836,13.995c-0.688,4.588 -1.3,9.233 -1.835,13.936c-0.535,4.703 -0.803,9.693 -0.803,14.97c0,4.129 0.536,7.494 1.606,10.094c1.071,2.6 2.371,3.9 3.9,3.9c1.606,0 3.288,-0.344 5.047,-1.033c1.759,-0.688 3.556,-1.567 5.391,-2.638c1.836,-1.07 3.633,-2.313 5.392,-3.728c0.92,-0.74 1.819,-1.496 2.697,-2.268c-0.728,-4.309 -1.091,-8.657 -1.091,-13.045c0,-8.412 1.261,-16.269 3.785,-23.572c2.523,-7.303 6.137,-13.65 10.84,-19.042c4.703,-5.391 10.457,-9.635 17.263,-12.732c6.806,-3.097 14.453,-4.646 22.941,-4.646c7.265,0 14.071,1.128 20.418,3.384c6.347,2.256 12.293,5.277 17.837,9.062c5.544,3.785 10.706,8.125 15.485,13.019c4.78,4.894 6.652,6.668 5.256,8.829c-7.371,11.41 -13.125,4.638 -17.063,1.579c-3.938,-3.059 -4.386,-3.392 -8.209,-6.106c-3.824,-2.715 -7.112,-4.99 -9.865,-6.825l-4.902,-2.747c4.579,4.73 7.865,13.128 8.974,18.06c1.109,4.932 1.663,9.654 1.663,14.166c0,4.512 -0.497,9.062 -1.491,13.65c-0.994,4.589 -2.428,9.024 -4.301,13.306c-1.874,4.283 -4.168,8.297 -6.883,12.044c-2.714,3.747 -5.811,6.997 -9.291,9.75c-3.479,2.753 -7.284,4.933 -11.413,6.539c-4.13,1.606 -8.527,2.409 -13.191,2.409c-6.73,0 -12.484,-1.473 -17.264,-4.417c-4.779,-2.944 -8.698,-6.786 -11.757,-11.528c-0.255,-0.395 -0.505,-0.796 -0.749,-1.2c-0.534,0.454 -1.069,0.912 -1.603,1.372c-3.326,2.868 -6.844,5.468 -10.553,7.8c-3.708,2.333 -7.78,4.245 -12.216,5.736c-4.435,1.491 -9.444,2.237 -15.026,2.237c-2.753,0 -5.067,-0.899 -6.94,-2.696c-1.874,-1.797 -3.384,-4.302 -4.531,-7.513c-1.147,-3.212 -1.969,-6.997 -2.466,-11.356c-0.497,-4.359 -0.746,-9.1 -0.746,-14.224c0,-4.818 0.172,-9.922 0.516,-15.313c0.345,-5.391 0.822,-10.84 1.434,-16.346l-1.72,0l-23.286,59.303c-1.988,3.212 -4.206,5.372 -6.653,6.481c-2.447,1.109 -5.276,1.664 -8.488,1.664c-2.447,0 -4.397,-0.67 -5.85,-2.008c-1.453,-1.338 -2.581,-3.059 -3.384,-5.162c-0.803,-2.103 -1.338,-4.416 -1.606,-6.939c-0.267,-2.524 -0.401,-4.971 -0.401,-7.342c0,-0.994 0.076,-2.408 0.229,-4.244c0.153,-1.835 0.383,-3.938 0.688,-6.309c0.306,-2.37 0.65,-4.875 1.033,-7.513c0.382,-2.638 0.764,-5.257 1.147,-7.857c0.841,-6.118 1.873,-12.694 3.097,-19.73l-1.721,0c-0.917,1.147 -1.969,2.868 -3.154,5.162c-1.185,2.294 -2.849,5.659 -4.99,10.094c-2.141,4.436 -4.875,10.19 -8.201,17.264c-3.327,7.073 -7.628,15.925 -12.905,26.554c-1.529,3.135 -3.307,5.257 -5.334,6.366c-2.026,1.109 -4.263,1.664 -6.71,1.664c-3.135,0 -5.659,-0.67 -7.571,-2.008c-1.911,-1.338 -3.383,-3.135 -4.416,-5.391c-1.032,-2.256 -1.72,-4.818 -2.065,-7.685l-0.06,-0.518Zm188.695,-6.422c2.6,0 5.124,-1.319 7.571,-3.957c2.447,-2.639 4.588,-5.965 6.423,-9.98c1.836,-4.015 3.308,-8.45 4.417,-13.306c1.108,-4.856 1.663,-9.501 1.663,-13.937c0,-3.517 -0.268,-6.786 -0.803,-9.807c-0.535,-3.021 -1.338,-5.64 -2.409,-7.857c-1.071,-2.218 -2.447,-3.977 -4.129,-5.277c-1.683,-1.3 -3.709,-1.95 -6.08,-1.95c-3.135,0 -6.118,1.338 -8.947,4.015c-2.829,2.676 -5.315,6.098 -7.456,10.266c-2.141,4.168 -3.823,8.775 -5.047,13.822c-1.223,5.047 -1.835,9.903 -1.835,14.568c0,3.212 0.306,6.232 0.917,9.062c0.612,2.829 1.568,5.295 2.868,7.398c1.3,2.103 3.021,3.785 5.162,5.047c2.141,1.262 4.703,1.893 7.685,1.893Z" style="fill:#fbd74b;"/><path d="M196.38,312.422c-1.988,1.457 -4.032,2.853 -6.134,4.189c-7.762,4.932 -15.868,9.062 -24.318,12.388c-8.45,3.326 -17.034,5.831 -25.752,7.513c-8.717,1.683 -17.168,2.524 -25.35,2.524c-9.023,0 -17.512,-1.052 -25.465,-3.155c-7.953,-2.103 -14.912,-5.314 -20.876,-9.635c-5.965,-4.321 -10.687,-9.788 -14.167,-16.403c-3.479,-6.615 -5.219,-14.472 -5.219,-23.572c0,-7.724 1.396,-15.141 4.187,-22.253c2.791,-7.112 7.112,-13.421 12.962,-18.927c5.85,-5.506 13.344,-9.941 22.482,-13.306c9.139,-3.364 20.093,-5.2 32.864,-5.506c-8.412,0 -15.753,-1.204 -22.024,-3.613c-6.27,-2.409 -11.471,-5.659 -15.6,-9.75c-4.129,-4.091 -7.226,-8.871 -9.291,-14.338c-2.065,-5.468 -3.097,-11.261 -3.097,-17.378c0,-5.736 0.994,-10.974 2.982,-15.715c1.988,-4.741 4.722,-9.004 8.202,-12.79c3.479,-3.785 7.589,-7.092 12.331,-9.922c4.741,-2.829 9.883,-5.181 15.428,-7.054c5.544,-1.874 11.356,-3.289 17.435,-4.244c6.079,-0.956 12.216,-1.434 18.41,-1.434c8.947,0 17.703,0.975 26.268,2.925c8.565,1.95 16.174,4.875 22.827,8.775c6.653,3.9 12.006,8.775 16.059,14.625c4.053,5.85 -1.123,10.972 -9.246,13.822c-4.167,1.462 -11.784,-3.365 -15.76,-5.047c-3.977,-1.683 -8.47,-3.212 -13.478,-4.588c-5.009,-1.377 -10.343,-2.505 -16.002,-3.384c-5.659,-0.88 -11.241,-1.319 -16.747,-1.319c-5.124,0 -10.018,0.458 -14.683,1.376c-4.664,0.918 -8.775,2.428 -12.33,4.531c-3.556,2.103 -6.386,4.875 -8.489,8.316c-2.103,3.441 -3.154,7.686 -3.154,12.733c0,4.129 0.745,7.608 2.237,10.438c1.491,2.829 3.479,5.238 5.964,7.226c2.486,1.989 5.334,3.614 8.546,4.875c3.212,1.262 6.538,2.39 9.979,3.384c3.442,0.994 6.825,1.95 10.152,2.868c3.326,0.918 6.385,1.969 9.176,3.154c2.792,1.186 5.143,2.62 7.055,4.302c1.912,1.682 6.734,4.961 4.473,15.944c-2.26,10.983 -24.967,11.585 -27.644,11.585c-6.117,0 -12.12,0.784 -18.009,2.352c-5.888,1.568 -11.164,3.9 -15.829,6.997c-4.665,3.097 -8.431,6.921 -11.299,11.471c-2.867,4.55 -4.301,9.845 -4.301,15.886c0,5.736 0.822,10.515 2.466,14.339c1.644,3.823 3.9,6.901 6.768,9.234c2.867,2.332 6.251,3.995 10.151,4.989c3.9,0.995 8.106,1.492 12.618,1.492c5.429,0 11.126,-0.536 17.091,-1.606c5.965,-1.071 11.91,-2.543 17.837,-4.417c5.926,-1.873 11.7,-4.091 17.321,-6.652c5.62,-2.562 10.839,-5.315 15.657,-8.259c4.818,-2.944 9.062,-6.042 12.732,-9.292c1.117,-0.988 2.155,-1.978 3.115,-2.97l0.097,-0.758c0.612,-4.741 1.319,-9.578 2.122,-14.51c0.803,-4.932 1.644,-9.654 2.524,-14.166c0.098,-0.502 0.196,-0.999 0.294,-1.492c0.785,-3.934 1.586,-7.566 2.401,-10.896c0.918,-3.748 1.759,-6.806 2.524,-9.177c0.765,-2.447 1.491,-4.397 2.179,-5.85c0.689,-1.453 1.472,-2.581 2.352,-3.384c0.879,-0.803 1.931,-1.338 3.154,-1.606c1.224,-0.267 2.792,-0.401 4.703,-0.401c2.906,0 5.181,0.095 6.825,0.287c1.644,0.191 2.868,0.65 3.671,1.376c0.803,0.727 1.281,1.778 1.434,3.154c0.153,1.377 0.229,3.25 0.229,5.621c0,1.3 -0.057,2.791 -0.172,4.474c-0.115,1.682 -0.287,3.479 -0.516,5.391c-0.229,1.912 -0.478,3.881 -0.746,5.907c-0.267,2.027 -0.554,3.996 -0.86,5.908c-0.688,4.511 -1.415,9.176 -2.179,13.994l1.261,1.376c0.153,-0.229 0.975,-1.682 2.467,-4.359c1.491,-2.676 3.326,-5.888 5.506,-9.635c2.179,-3.747 4.53,-7.666 7.054,-11.757c2.523,-4.092 4.932,-7.705 7.226,-10.84c2.218,-3.135 4.57,-5.735 7.055,-7.8c2.485,-2.065 5.448,-3.097 8.89,-3.097c3.211,0 5.964,0.937 8.259,2.81c2.294,1.874 3.441,4.531 3.441,7.972c0,2.983 -0.191,5.812 -0.574,8.488c-0.382,2.677 -0.86,5.277 -1.434,7.801c-0.573,2.523 -1.166,4.989 -1.778,7.398c-0.611,2.409 -1.185,4.875 -1.72,7.399c-0.383,1.758 -0.612,2.867 -0.688,3.326c-0.077,0.459 -0.115,0.765 -0.115,0.918l1.262,1.376c0.153,-0.229 1.032,-1.663 2.638,-4.301c1.606,-2.638 3.575,-5.831 5.907,-9.578c2.333,-3.747 4.818,-7.686 7.456,-11.815c2.638,-4.129 5.105,-7.762 7.399,-10.897c2.217,-3.059 4.435,-5.64 6.653,-7.743c2.217,-2.103 4.932,-3.154 8.144,-3.154c3.594,0 6.634,0.937 9.119,2.81c2.485,1.874 3.728,4.531 3.728,7.972c0,5.277 -0.268,10.286 -0.803,15.027c-0.535,4.741 -1.147,9.406 -1.835,13.994c-0.688,4.588 -1.3,9.234 -1.836,13.937c-0.535,4.703 -0.803,9.692 -0.803,14.969c0,4.129 0.536,7.494 1.606,10.094c1.071,2.6 2.371,3.9 3.9,3.9c1.606,0 3.289,-0.344 5.047,-1.032c1.759,-0.688 3.556,-1.568 5.392,-2.638c1.835,-1.071 3.632,-2.314 5.391,-3.728c0.92,-0.741 1.819,-1.496 2.698,-2.268c-0.728,-4.31 -1.092,-8.658 -1.092,-13.046c0,-8.412 1.262,-16.269 3.785,-23.572c2.524,-7.303 6.137,-13.65 10.84,-19.041c4.703,-5.391 10.457,-9.636 17.263,-12.733c6.806,-3.097 14.453,-4.645 22.941,-4.645c7.265,0 14.071,1.128 20.418,3.384c6.347,2.256 12.293,5.276 17.837,9.061c5.544,3.786 10.706,8.125 15.485,13.02c4.78,4.894 6.652,6.668 5.257,8.828c-7.372,11.41 -13.125,4.638 -17.064,1.58c-3.938,-3.059 -4.385,-3.392 -8.209,-6.107c-3.823,-2.715 -7.112,-4.99 -9.865,-6.825l-4.902,-2.746c4.579,4.729 7.866,13.127 8.974,18.059c1.109,4.933 1.664,9.655 1.664,14.167c0,4.511 -0.497,9.061 -1.491,13.65c-0.995,4.588 -2.428,9.023 -4.302,13.306c-1.873,4.282 -4.168,8.297 -6.882,12.044c-2.715,3.747 -5.812,6.997 -9.292,9.75c-3.479,2.753 -7.283,4.932 -11.413,6.538c-4.129,1.606 -8.526,2.409 -13.191,2.409c-6.73,0 -12.484,-1.472 -17.263,-4.416c-4.78,-2.944 -8.699,-6.787 -11.758,-11.528c-0.255,-0.396 -0.505,-0.796 -0.748,-1.201c-0.535,0.455 -1.069,0.913 -1.603,1.373c-3.327,2.868 -6.844,5.468 -10.553,7.8c-3.709,2.332 -7.781,4.244 -12.217,5.735c-4.435,1.491 -9.444,2.237 -15.026,2.237c-2.753,0 -5.066,-0.899 -6.94,-2.696c-1.873,-1.797 -3.384,-4.301 -4.531,-7.513c-1.147,-3.212 -1.969,-6.997 -2.466,-11.356c-0.497,-4.359 -0.746,-9.1 -0.746,-14.223c0,-4.818 0.173,-9.923 0.517,-15.314c0.344,-5.391 0.822,-10.839 1.434,-16.345l-1.721,0l-23.285,59.303c-1.989,3.212 -4.206,5.372 -6.653,6.481c-2.448,1.109 -5.277,1.663 -8.489,1.663c-2.447,0 -4.397,-0.669 -5.85,-2.007c-1.453,-1.339 -2.581,-3.059 -3.384,-5.162c-0.803,-2.103 -1.338,-4.416 -1.606,-6.94c-0.267,-2.523 -0.401,-4.971 -0.401,-7.341c0,-0.994 0.076,-2.409 0.229,-4.244c0.153,-1.836 0.383,-3.939 0.689,-6.309c0.306,-2.371 0.65,-4.875 1.032,-7.513c0.382,-2.639 0.765,-5.258 1.147,-7.858c0.841,-6.117 1.874,-12.694 3.097,-19.729l-1.72,0c-0.918,1.147 -1.97,2.867 -3.155,5.162c-1.185,2.294 -2.848,5.658 -4.99,10.094c-2.141,4.435 -4.875,10.189 -8.201,17.263c-3.327,7.074 -7.628,15.925 -12.905,26.555c-1.529,3.135 -3.307,5.257 -5.333,6.366c-2.027,1.109 -4.264,1.663 -6.711,1.663c-3.135,0 -5.659,-0.669 -7.57,-2.007c-1.912,-1.339 -3.384,-3.136 -4.417,-5.392c-1.032,-2.255 -1.72,-4.817 -2.064,-7.685l-0.06,-0.518Zm188.694,-6.422c2.6,0 5.124,-1.319 7.571,-3.957c2.447,-2.638 4.588,-5.965 6.424,-9.979c1.835,-4.015 3.307,-8.451 4.416,-13.306c1.109,-4.856 1.663,-9.502 1.663,-13.937c0,-3.518 -0.268,-6.787 -0.803,-9.808c-0.535,-3.02 -1.338,-5.639 -2.409,-7.857c-1.07,-2.218 -2.447,-3.977 -4.129,-5.277c-1.682,-1.3 -3.709,-1.95 -6.08,-1.95c-3.135,0 -6.117,1.339 -8.947,4.015c-2.829,2.677 -5.314,6.099 -7.456,10.266c-2.141,4.168 -3.823,8.775 -5.047,13.823c-1.223,5.047 -1.835,9.903 -1.835,14.567c0,3.212 0.306,6.233 0.918,9.062c0.611,2.829 1.567,5.296 2.867,7.399c1.3,2.103 3.021,3.785 5.162,5.047c2.141,1.261 4.703,1.892 7.685,1.892Z" style="fill:#f9a040;"/><path d="M193.318,307.585c-1.987,1.457 -4.032,2.853 -6.134,4.189c-7.762,4.933 -15.868,9.062 -24.318,12.388c-8.45,3.327 -17.034,5.831 -25.752,7.514c-8.717,1.682 -17.167,2.523 -25.35,2.523c-9.023,0 -17.512,-1.051 -25.464,-3.154c-7.953,-2.103 -14.912,-5.315 -20.877,-9.636c-5.965,-4.32 -10.687,-9.788 -14.166,-16.403c-3.48,-6.614 -5.219,-14.472 -5.219,-23.572c0,-7.723 1.395,-15.141 4.186,-22.253c2.792,-7.112 7.112,-13.42 12.962,-18.926c5.85,-5.506 13.344,-9.942 22.483,-13.306c9.138,-3.365 20.092,-5.2 32.863,-5.506c-8.412,0 -15.753,-1.205 -22.024,-3.613c-6.27,-2.409 -11.47,-5.659 -15.6,-9.75c-4.129,-4.092 -7.226,-8.871 -9.291,-14.339c-2.065,-5.467 -3.097,-11.26 -3.097,-17.378c0,-5.735 0.994,-10.973 2.982,-15.715c1.989,-4.741 4.722,-9.004 8.202,-12.789c3.479,-3.786 7.59,-7.093 12.331,-9.922c4.741,-2.83 9.884,-5.181 15.428,-7.055c5.544,-1.873 11.356,-3.288 17.435,-4.244c6.08,-0.956 12.216,-1.434 18.411,-1.434c8.947,0 17.703,0.975 26.267,2.925c8.565,1.95 16.174,4.875 22.827,8.775c6.653,3.9 12.006,8.775 16.059,14.625c4.053,5.85 -1.123,10.972 -9.246,13.822c-4.167,1.463 -11.784,-3.364 -15.76,-5.047c-3.977,-1.682 -8.469,-3.212 -13.478,-4.588c-5.009,-1.376 -10.343,-2.504 -16.002,-3.384c-5.659,-0.879 -11.241,-1.319 -16.747,-1.319c-5.123,0 -10.018,0.459 -14.682,1.377c-4.665,0.917 -8.775,2.427 -12.331,4.53c-3.556,2.103 -6.386,4.875 -8.488,8.317c-2.103,3.441 -3.155,7.685 -3.155,12.732c0,4.13 0.746,7.609 2.237,10.438c1.491,2.83 3.479,5.239 5.965,7.227c2.485,1.988 5.333,3.613 8.545,4.875c3.212,1.262 6.539,2.39 9.98,3.384c3.441,0.994 6.825,1.95 10.151,2.867c3.327,0.918 6.386,1.97 9.177,3.155c2.791,1.185 5.142,2.619 7.054,4.301c1.912,1.683 6.735,4.961 4.474,15.944c-2.261,10.984 -24.968,11.586 -27.645,11.586c-6.117,0 -12.12,0.784 -18.008,2.351c-5.889,1.568 -11.165,3.9 -15.83,6.997c-4.665,3.097 -8.431,6.921 -11.298,11.471c-2.868,4.55 -4.302,9.846 -4.302,15.887c0,5.735 0.822,10.515 2.466,14.338c1.644,3.824 3.9,6.902 6.768,9.234c2.868,2.332 6.251,3.996 10.151,4.99c3.9,0.994 8.106,1.491 12.618,1.491c5.43,0 11.127,-0.535 17.091,-1.606c5.965,-1.07 11.911,-2.543 17.837,-4.416c5.927,-1.874 11.7,-4.091 17.321,-6.653c5.621,-2.562 10.84,-5.315 15.657,-8.259c4.818,-2.944 9.062,-6.041 12.733,-9.291c1.116,-0.988 2.154,-1.978 3.115,-2.97l0.097,-0.758c0.611,-4.741 1.319,-9.578 2.122,-14.51c0.803,-4.933 1.644,-9.655 2.523,-14.167c0.098,-0.502 0.196,-0.999 0.294,-1.491c0.786,-3.934 1.586,-7.567 2.402,-10.897c0.917,-3.747 1.759,-6.806 2.523,-9.177c0.765,-2.447 1.491,-4.397 2.18,-5.85c0.688,-1.453 1.472,-2.58 2.351,-3.383c0.88,-0.803 1.931,-1.339 3.155,-1.606c1.223,-0.268 2.791,-0.402 4.703,-0.402c2.905,0 5.18,0.096 6.825,0.287c1.644,0.191 2.867,0.65 3.67,1.376c0.803,0.727 1.281,1.778 1.434,3.155c0.153,1.376 0.229,3.25 0.229,5.621c0,1.3 -0.057,2.791 -0.172,4.473c-0.114,1.682 -0.286,3.48 -0.516,5.391c-0.229,1.912 -0.478,3.881 -0.745,5.908c-0.268,2.026 -0.555,3.995 -0.861,5.907c-0.688,4.512 -1.414,9.177 -2.179,13.994l1.262,1.377c0.153,-0.23 0.975,-1.683 2.466,-4.359c1.491,-2.677 3.326,-5.888 5.506,-9.635c2.179,-3.748 4.531,-7.667 7.054,-11.758c2.524,-4.091 4.933,-7.704 7.227,-10.84c2.217,-3.135 4.569,-5.735 7.054,-7.8c2.485,-2.064 5.449,-3.097 8.89,-3.097c3.212,0 5.965,0.937 8.259,2.811c2.294,1.873 3.441,4.53 3.441,7.972c0,2.982 -0.191,5.811 -0.574,8.488c-0.382,2.676 -0.86,5.276 -1.433,7.8c-0.574,2.524 -1.167,4.99 -1.778,7.399c-0.612,2.408 -1.186,4.875 -1.721,7.398c-0.382,1.759 -0.612,2.868 -0.688,3.327c-0.077,0.458 -0.115,0.764 -0.115,0.917l1.262,1.377c0.153,-0.23 1.032,-1.664 2.638,-4.302c1.606,-2.638 3.575,-5.831 5.908,-9.578c2.332,-3.747 4.817,-7.685 7.455,-11.815c2.639,-4.129 5.105,-7.761 7.399,-10.897c2.218,-3.058 4.435,-5.639 6.653,-7.742c2.218,-2.103 4.932,-3.155 8.144,-3.155c3.594,0 6.634,0.937 9.119,2.811c2.486,1.873 3.728,4.53 3.728,7.972c0,5.276 -0.267,10.285 -0.803,15.026c-0.535,4.741 -1.147,9.406 -1.835,13.994c-0.688,4.589 -1.3,9.234 -1.835,13.937c-0.536,4.703 -0.803,9.693 -0.803,14.969c0,4.13 0.535,7.495 1.606,10.095c1.07,2.6 2.37,3.9 3.9,3.9c1.606,0 3.288,-0.345 5.047,-1.033c1.759,-0.688 3.556,-1.567 5.391,-2.638c1.835,-1.071 3.632,-2.313 5.391,-3.728c0.92,-0.74 1.819,-1.496 2.698,-2.268c-0.728,-4.309 -1.092,-8.658 -1.092,-13.045c0,-8.412 1.262,-16.269 3.785,-23.572c2.524,-7.303 6.137,-13.651 10.84,-19.042c4.703,-5.391 10.458,-9.635 17.263,-12.732c6.806,-3.097 14.453,-4.646 22.942,-4.646c7.264,0 14.07,1.128 20.417,3.384c6.348,2.256 12.293,5.277 17.837,9.062c5.544,3.785 10.706,8.125 15.486,13.019c4.779,4.894 6.651,6.668 5.256,8.829c-7.371,11.41 -13.125,4.638 -17.063,1.579c-3.939,-3.059 -4.386,-3.392 -8.21,-6.106c-3.823,-2.715 -7.111,-4.99 -9.864,-6.825l-4.903,-2.747c4.579,4.73 7.866,13.127 8.975,18.06c1.109,4.932 1.663,9.654 1.663,14.166c0,4.512 -0.497,9.062 -1.491,13.65c-0.994,4.588 -2.428,9.024 -4.302,13.306c-1.873,4.282 -4.167,8.297 -6.882,12.044c-2.715,3.747 -5.812,6.997 -9.291,9.75c-3.48,2.753 -7.284,4.933 -11.414,6.539c-4.129,1.605 -8.526,2.408 -13.191,2.408c-6.729,0 -12.484,-1.472 -17.263,-4.416c-4.78,-2.944 -8.699,-6.787 -11.758,-11.528c-0.255,-0.396 -0.505,-0.796 -0.748,-1.201c-0.535,0.455 -1.069,0.913 -1.603,1.373c-3.327,2.868 -6.844,5.468 -10.553,7.8c-3.709,2.333 -7.781,4.244 -12.216,5.736c-4.436,1.491 -9.444,2.236 -15.027,2.236c-2.753,0 -5.066,-0.898 -6.94,-2.695c-1.873,-1.797 -3.383,-4.302 -4.53,-7.513c-1.148,-3.212 -1.97,-6.998 -2.467,-11.356c-0.497,-4.359 -0.745,-9.1 -0.745,-14.224c0,-4.818 0.172,-9.922 0.516,-15.313c0.344,-5.391 0.822,-10.84 1.434,-16.346l-1.721,0l-23.285,59.303c-1.988,3.212 -4.206,5.372 -6.653,6.481c-2.447,1.109 -5.277,1.663 -8.488,1.663c-2.448,0 -4.398,-0.669 -5.851,-2.007c-1.452,-1.338 -2.58,-3.059 -3.383,-5.162c-0.803,-2.103 -1.339,-4.416 -1.606,-6.939c-0.268,-2.524 -0.402,-4.971 -0.402,-7.342c0,-0.994 0.077,-2.409 0.23,-4.244c0.153,-1.835 0.382,-3.938 0.688,-6.309c0.306,-2.37 0.65,-4.875 1.032,-7.513c0.383,-2.638 0.765,-5.257 1.147,-7.857c0.842,-6.118 1.874,-12.695 3.097,-19.73l-1.72,0c-0.918,1.147 -1.969,2.868 -3.155,5.162c-1.185,2.294 -2.848,5.659 -4.989,10.094c-2.142,4.435 -4.875,10.19 -8.202,17.263c-3.326,7.074 -7.628,15.926 -12.904,26.555c-1.53,3.135 -3.308,5.257 -5.334,6.366c-2.027,1.109 -4.263,1.663 -6.71,1.663c-3.136,0 -5.659,-0.669 -7.571,-2.007c-1.912,-1.338 -3.384,-3.135 -4.416,-5.391c-1.033,-2.256 -1.721,-4.818 -2.065,-7.685l-0.06,-0.519Zm188.695,-6.421c2.6,0 5.123,-1.319 7.57,-3.958c2.447,-2.638 4.589,-5.964 6.424,-9.979c1.835,-4.015 3.307,-8.45 4.416,-13.306c1.109,-4.856 1.663,-9.502 1.663,-13.937c0,-3.517 -0.267,-6.787 -0.803,-9.807c-0.535,-3.021 -1.338,-5.64 -2.408,-7.858c-1.071,-2.217 -2.448,-3.976 -4.13,-5.276c-1.682,-1.3 -3.709,-1.95 -6.079,-1.95c-3.136,0 -6.118,1.338 -8.947,4.015c-2.83,2.676 -5.315,6.098 -7.456,10.266c-2.142,4.167 -3.824,8.775 -5.047,13.822c-1.224,5.047 -1.836,9.903 -1.836,14.568c0,3.211 0.306,6.232 0.918,9.061c0.612,2.83 1.568,5.296 2.868,7.399c1.3,2.103 3.02,3.785 5.161,5.047c2.142,1.262 4.703,1.893 7.686,1.893Z" style="fill:#2e63f7;"/><path d="M190.256,302.749c-1.987,1.457 -4.032,2.853 -6.134,4.189c-7.762,4.932 -15.868,9.061 -24.318,12.388c-8.45,3.326 -17.034,5.831 -25.751,7.513c-8.718,1.682 -17.168,2.524 -25.35,2.524c-9.024,0 -17.512,-1.052 -25.465,-3.155c-7.953,-2.103 -14.912,-5.314 -20.877,-9.635c-5.965,-4.321 -10.687,-9.788 -14.166,-16.403c-3.479,-6.615 -5.219,-14.472 -5.219,-23.572c0,-7.724 1.395,-15.142 4.187,-22.253c2.791,-7.112 7.111,-13.421 12.961,-18.927c5.85,-5.506 13.345,-9.941 22.483,-13.306c9.138,-3.365 20.093,-5.2 32.863,-5.506c-8.412,0 -15.753,-1.204 -22.023,-3.613c-6.271,-2.409 -11.471,-5.659 -15.6,-9.75c-4.13,-4.091 -7.227,-8.871 -9.292,-14.338c-2.064,-5.468 -3.097,-11.261 -3.097,-17.378c0,-5.736 0.994,-10.974 2.983,-15.715c1.988,-4.741 4.722,-9.005 8.201,-12.79c3.48,-3.785 7.59,-7.093 12.331,-9.922c4.741,-2.829 9.884,-5.181 15.428,-7.054c5.544,-1.874 11.356,-3.289 17.435,-4.245c6.08,-0.956 12.217,-1.433 18.411,-1.433c8.947,0 17.703,0.975 26.268,2.925c8.564,1.95 16.173,4.875 22.826,8.775c6.653,3.9 12.006,8.775 16.059,14.625c4.053,5.85 -1.123,10.971 -9.245,13.822c-4.168,1.462 -11.784,-3.365 -15.761,-5.047c-3.976,-1.683 -8.469,-3.212 -13.478,-4.589c-5.009,-1.376 -10.343,-2.504 -16.001,-3.383c-5.659,-0.88 -11.242,-1.32 -16.748,-1.32c-5.123,0 -10.017,0.459 -14.682,1.377c-4.665,0.918 -8.775,2.428 -12.331,4.531c-3.556,2.103 -6.385,4.875 -8.488,8.316c-2.103,3.441 -3.155,7.685 -3.155,12.733c0,4.129 0.746,7.608 2.237,10.438c1.491,2.829 3.48,5.238 5.965,7.226c2.485,1.989 5.334,3.614 8.546,4.875c3.211,1.262 6.538,2.39 9.979,3.384c3.441,0.994 6.825,1.95 10.151,2.868c3.327,0.917 6.386,1.969 9.177,3.154c2.791,1.186 5.143,2.619 7.054,4.302c1.912,1.682 6.735,4.961 4.474,15.944c-2.261,10.983 -24.968,11.585 -27.644,11.585c-6.118,0 -12.121,0.784 -18.009,2.352c-5.888,1.567 -11.165,3.9 -15.83,6.997c-4.664,3.097 -8.431,6.92 -11.298,11.471c-2.868,4.55 -4.302,9.845 -4.302,15.886c0,5.736 0.822,10.515 2.466,14.339c1.645,3.823 3.9,6.901 6.768,9.234c2.868,2.332 6.252,3.995 10.152,4.989c3.9,0.994 8.106,1.491 12.617,1.491c5.43,0 11.127,-0.535 17.092,-1.605c5.964,-1.071 11.91,-2.543 17.836,-4.417c5.927,-1.873 11.701,-4.091 17.321,-6.653c5.621,-2.561 10.84,-5.314 15.658,-8.258c4.817,-2.945 9.061,-6.042 12.732,-9.292c1.116,-0.988 2.155,-1.978 3.115,-2.97l0.097,-0.758c0.612,-4.741 1.319,-9.578 2.122,-14.51c0.803,-4.932 1.644,-9.654 2.523,-14.166c0.098,-0.502 0.196,-0.999 0.295,-1.492c0.785,-3.934 1.585,-7.566 2.401,-10.897c0.918,-3.747 1.759,-6.805 2.524,-9.176c0.764,-2.447 1.491,-4.397 2.179,-5.85c0.688,-1.453 1.472,-2.581 2.351,-3.384c0.88,-0.803 1.931,-1.338 3.155,-1.606c1.223,-0.268 2.791,-0.401 4.703,-0.401c2.906,0 5.181,0.095 6.825,0.286c1.644,0.192 2.868,0.65 3.67,1.377c0.803,0.726 1.281,1.778 1.434,3.154c0.153,1.377 0.23,3.25 0.23,5.621c0,1.3 -0.058,2.791 -0.172,4.474c-0.115,1.682 -0.287,3.479 -0.517,5.391c-0.229,1.911 -0.477,3.881 -0.745,5.907c-0.268,2.027 -0.555,3.996 -0.86,5.907c-0.689,4.512 -1.415,9.177 -2.18,13.995l1.262,1.376c0.153,-0.229 0.975,-1.682 2.466,-4.359c1.491,-2.676 3.327,-5.888 5.506,-9.635c2.179,-3.747 4.531,-7.666 7.054,-11.757c2.524,-4.092 4.933,-7.705 7.227,-10.84c2.218,-3.136 4.569,-5.736 7.054,-7.8c2.486,-2.065 5.449,-3.097 8.89,-3.097c3.212,0 5.965,0.936 8.259,2.81c2.294,1.874 3.441,4.531 3.441,7.972c0,2.982 -0.191,5.812 -0.573,8.488c-0.383,2.677 -0.861,5.277 -1.434,7.8c-0.574,2.524 -1.166,4.99 -1.778,7.399c-0.612,2.409 -1.185,4.875 -1.721,7.399c-0.382,1.758 -0.611,2.867 -0.688,3.326c-0.076,0.459 -0.115,0.765 -0.115,0.918l1.262,1.376c0.153,-0.229 1.033,-1.663 2.638,-4.301c1.606,-2.639 3.575,-5.831 5.908,-9.578c2.332,-3.747 4.817,-7.686 7.456,-11.815c2.638,-4.13 5.104,-7.762 7.398,-10.897c2.218,-3.059 4.436,-5.64 6.653,-7.743c2.218,-2.103 4.933,-3.154 8.144,-3.154c3.595,0 6.634,0.936 9.12,2.81c2.485,1.874 3.728,4.531 3.728,7.972c0,5.277 -0.268,10.285 -0.803,15.027c-0.536,4.741 -1.148,9.406 -1.836,13.994c-0.688,4.588 -1.3,9.234 -1.835,13.937c-0.535,4.703 -0.803,9.692 -0.803,14.969c0,4.129 0.535,7.494 1.606,10.094c1.07,2.6 2.371,3.9 3.9,3.9c1.606,0 3.288,-0.344 5.047,-1.032c1.759,-0.689 3.556,-1.568 5.391,-2.639c1.836,-1.07 3.633,-2.313 5.391,-3.728c0.921,-0.74 1.82,-1.495 2.698,-2.267c-0.728,-4.31 -1.092,-8.658 -1.092,-13.046c0,-8.412 1.262,-16.269 3.786,-23.572c2.523,-7.303 6.136,-13.65 10.839,-19.041c4.703,-5.392 10.458,-9.636 17.264,-12.733c6.806,-3.097 14.453,-4.645 22.941,-4.645c7.265,0 14.071,1.128 20.418,3.384c6.347,2.255 12.292,5.276 17.837,9.061c5.544,3.786 10.706,8.125 15.485,13.02c4.779,4.894 6.652,6.668 5.256,8.828c-7.371,11.41 -13.125,4.638 -17.063,1.579c-3.938,-3.058 -4.386,-3.391 -8.209,-6.106c-3.824,-2.715 -7.112,-4.99 -9.865,-6.825l-4.902,-2.746c4.579,4.729 7.865,13.127 8.974,18.059c1.109,4.933 1.663,9.655 1.663,14.167c0,4.511 -0.497,9.061 -1.491,13.65c-0.994,4.588 -2.428,9.023 -4.301,13.306c-1.874,4.282 -4.168,8.297 -6.883,12.044c-2.715,3.747 -5.812,6.997 -9.291,9.75c-3.479,2.753 -7.284,4.932 -11.413,6.538c-4.13,1.606 -8.527,2.409 -13.192,2.409c-6.729,0 -12.483,-1.472 -17.263,-4.416c-4.779,-2.944 -8.698,-6.787 -11.757,-11.528c-0.256,-0.396 -0.505,-0.796 -0.749,-1.201c-0.535,0.455 -1.069,0.913 -1.603,1.373c-3.326,2.867 -6.844,5.467 -10.553,7.8c-3.709,2.332 -7.781,4.244 -12.216,5.735c-4.435,1.491 -9.444,2.237 -15.027,2.237c-2.753,0 -5.066,-0.899 -6.939,-2.696c-1.874,-1.797 -3.384,-4.301 -4.531,-7.513c-1.147,-3.212 -1.969,-6.997 -2.466,-11.356c-0.497,-4.359 -0.746,-9.1 -0.746,-14.224c0,-4.817 0.172,-9.922 0.516,-15.313c0.344,-5.391 0.822,-10.84 1.434,-16.346l-1.721,0l-23.285,59.304c-1.988,3.211 -4.206,5.372 -6.653,6.481c-2.447,1.108 -5.276,1.663 -8.488,1.663c-2.447,0 -4.397,-0.669 -5.85,-2.008c-1.453,-1.338 -2.581,-3.058 -3.384,-5.161c-0.803,-2.103 -1.338,-4.416 -1.606,-6.94c-0.268,-2.524 -0.401,-4.971 -0.401,-7.341c0,-0.994 0.076,-2.409 0.229,-4.244c0.153,-1.836 0.382,-3.939 0.688,-6.309c0.306,-2.371 0.65,-4.875 1.033,-7.514c0.382,-2.638 0.764,-5.257 1.147,-7.857c0.841,-6.118 1.873,-12.694 3.097,-19.729l-1.721,0c-0.918,1.147 -1.969,2.867 -3.154,5.161c-1.186,2.295 -2.849,5.659 -4.99,10.095c-2.141,4.435 -4.875,10.189 -8.202,17.263c-3.326,7.073 -7.628,15.925 -12.904,26.554c-1.529,3.136 -3.307,5.258 -5.334,6.367c-2.026,1.108 -4.263,1.663 -6.71,1.663c-3.136,0 -5.659,-0.669 -7.571,-2.008c-1.912,-1.338 -3.384,-3.135 -4.416,-5.391c-1.032,-2.256 -1.721,-4.817 -2.065,-7.685l-0.06,-0.518Zm188.695,-6.422c2.6,0 5.124,-1.319 7.571,-3.957c2.447,-2.638 4.588,-5.965 6.423,-9.98c1.835,-4.014 3.308,-8.45 4.416,-13.306c1.109,-4.855 1.664,-9.501 1.664,-13.936c0,-3.518 -0.268,-6.787 -0.803,-9.808c-0.536,-3.02 -1.339,-5.64 -2.409,-7.857c-1.071,-2.218 -2.447,-3.977 -4.13,-5.277c-1.682,-1.3 -3.708,-1.95 -6.079,-1.95c-3.135,0 -6.118,1.339 -8.947,4.015c-2.83,2.677 -5.315,6.099 -7.456,10.266c-2.141,4.168 -3.824,8.775 -5.047,13.822c-1.224,5.047 -1.835,9.903 -1.835,14.568c0,3.212 0.305,6.232 0.917,9.062c0.612,2.829 1.568,5.296 2.868,7.398c1.3,2.103 3.02,3.786 5.162,5.048c2.141,1.261 4.703,1.892 7.685,1.892Z" style="fill:#2da8d5;"/></g></g></svg>