<?xml version="1.0" standalone="no"?><!DOCTYPE svg PUBLIC "-//W3C//DTD SVG 1.1//EN" "http://www.w3.org/Graphics/SVG/1.1/DTD/svg11.dtd"><svg width="100%" height="100%" viewBox="0 0 500 340" version="1.1" xmlns="http://www.w3.org/2000/svg" xmlns:xlink="http://www.w3.org/1999/xlink" xml:space="preserve" style="fill-rule:evenodd;clip-rule:evenodd;stroke-linejoin:round;stroke-miterlimit:1.41421;"><clipPath id="_clip1"><rect x="0" y="0" width="500" height="340"/></clipPath><g clip-path="url(#_clip1)"><g id="Confused bkg"><path d="M217.191,5.167l-51.407,-30.912l-211.646,351.971l51.407,30.912l211.646,-351.971Z" style="fill:#fdd74b;"/><path d="M9.06,-33.908l-49.035,34.551l270.725,384.213l49.035,-34.551l-270.725,-384.213Z" style="fill:#34a8d5;"/><rect x="142.869" y="-25.745" width="59.985" height="382.883" style="fill:#f7314a;"/><path d="M348.868,-20.343l-54.748,-24.513l-180.168,402.389l54.747,24.514l180.169,-402.39Z" style="fill:#54b643;"/><path d="M373.438,383.859l54.85,-24.282l-170.583,-385.322l-54.851,24.283l170.584,385.321Z" style="fill:#3463f7;"/><path d="M545.08,208.937l-15.525,-57.941l-553.093,148.2l15.525,57.942l553.093,-148.201Z" style="fill:#bd5ed4;"/><path d="M275.123,-44.349l-42.415,42.416l270.738,270.738l42.416,-42.415l-270.739,-270.739Z" style="fill:#faa040;"/></g></g></svg>