<?xml version="1.0" standalone="no"?><!DOCTYPE svg PUBLIC "-//W3C//DTD SVG 1.1//EN" "http://www.w3.org/Graphics/SVG/1.1/DTD/svg11.dtd"><svg width="100%" height="100%" viewBox="0 0 500 340" version="1.1" xmlns="http://www.w3.org/2000/svg" xmlns:xlink="http://www.w3.org/1999/xlink" xml:space="preserve" style="fill-rule:evenodd;clip-rule:evenodd;stroke-linejoin:round;stroke-miterlimit:1.41421;"><g id="Tired"><g><circle cx="250" cy="259.143" r="26.815" style="fill:#000;"/></g><g><path d="M210.715,71.504c0,-2.962 -2.404,-5.366 -5.365,-5.366l-2.687,0c-2.961,0 -5.366,2.404 -5.366,5.366l0,118.902c0,2.962 2.405,5.366 5.366,5.366l2.687,0c2.961,0 5.365,-2.404 5.365,-5.366l0,-118.902Z" style="fill:#000;"/><clipPath id="_clip1"><path d="M210.715,71.504c0,-2.962 -2.404,-5.366 -5.365,-5.366l-2.687,0c-2.961,0 -5.366,2.404 -5.366,5.366l0,118.902c0,2.962 2.405,5.366 5.366,5.366l2.687,0c2.961,0 5.365,-2.404 5.365,-5.366l0,-118.902Z"/></clipPath><g clip-path="url(#_clip1)"><ellipse cx="204.306" cy="81.165" rx="23.497" ry="58.952" style="fill:#0029ab;"/></g><path d="M302.703,71.505c0,-2.962 -2.405,-5.367 -5.368,-5.367l-2.683,0c-2.962,0 -5.367,2.405 -5.367,5.367l0,118.9c0,2.962 2.405,5.367 5.367,5.367l2.683,0c2.963,0 5.368,-2.405 5.368,-5.367l0,-118.9Z" style="fill:#000;"/><clipPath id="_clip2"><path d="M302.703,71.505c0,-2.962 -2.405,-5.367 -5.368,-5.367l-2.683,0c-2.962,0 -5.367,2.405 -5.367,5.367l0,118.9c0,2.962 2.405,5.367 5.367,5.367l2.683,0c2.963,0 5.368,-2.405 5.368,-5.367l0,-118.9Z"/></clipPath><g clip-path="url(#_clip2)"><ellipse cx="295.994" cy="81.165" rx="23.497" ry="58.952" style="fill:#0029ab;"/></g></g></g></svg>