<?xml version="1.0" standalone="no"?><!DOCTYPE svg PUBLIC "-//W3C//DTD SVG 1.1//EN" "http://www.w3.org/Graphics/SVG/1.1/DTD/svg11.dtd"><svg width="100%" height="100%" viewBox="0 0 500 340" version="1.1" xmlns="http://www.w3.org/2000/svg" xmlns:xlink="http://www.w3.org/1999/xlink" xml:space="preserve" style="fill-rule:evenodd;clip-rule:evenodd;stroke-linejoin:round;stroke-miterlimit:1.41421;"><g id="Sad"><path d="M210.534,67.915c0,-2.977 -2.416,-5.393 -5.393,-5.393l-2.7,0c-2.977,0 -5.393,2.416 -5.393,5.393l0,122.464c0,2.976 2.416,5.393 5.393,5.393l2.7,0c2.977,0 5.393,-2.417 5.393,-5.393l0,-122.464Z" style="fill:#000;"/><path d="M302.993,67.916c0,-2.977 -2.417,-5.394 -5.395,-5.394l-2.697,0c-2.977,0 -5.395,2.417 -5.395,5.394l0,122.461c0,2.978 2.418,5.395 5.395,5.395l2.697,0c2.978,0 5.395,-2.417 5.395,-5.395l0,-122.461Z" style="fill:#000;"/><path d="M249.922,251.997l0.581,0.002l0.573,0.005l0.581,0.008l0.58,0.01l0.577,0.012l0.577,0.015l0.581,0.017l0.577,0.02l0.258,0.01l0.319,0.02l0.576,0.039l0.58,0.042l0.577,0.043l0.58,0.047l0.579,0.049l0.576,0.051l0.576,0.054l0.579,0.056l0.488,0.05l0.087,0.011l0.578,0.076l0.574,0.078l0.576,0.081l0.573,0.083l0.577,0.086l0.572,0.087l0.576,0.091l0.574,0.093l0.572,0.095l0.575,0.098l0.57,0.1l0.574,0.103l0.573,0.106l0.569,0.107l0.572,0.11l0.568,0.112l0.572,0.115l0.568,0.117l0.569,0.12l0.567,0.122l0.155,0.033l0.413,0.101l0.565,0.14l0.564,0.142l0.565,0.145l0.562,0.147l0.561,0.149l0.564,0.152l0.559,0.154l0.562,0.157l0.558,0.159l0.56,0.161l0.554,0.163l0.559,0.166l0.558,0.169l0.556,0.171l0.553,0.173l0.554,0.175l0.554,0.178l0.552,0.18l0.551,0.182l0.552,0.186l0.326,0.11l0.223,0.08l0.549,0.199l0.543,0.2l0.542,0.202l0.546,0.206l0.545,0.208l0.54,0.209l0.537,0.211l0.541,0.215l0.543,0.217l0.539,0.22l0.533,0.22l0.535,0.223l0.532,0.225l0.54,0.23l0.531,0.23l0.529,0.232l0.528,0.234l0.531,0.238l0.527,0.239l0.528,0.242l0.169,0.079l0.353,0.17l0.524,0.256l0.514,0.254l0.522,0.26l0.516,0.261l0.515,0.262l0.517,0.267l0.51,0.266l0.514,0.271l0.509,0.271l0.509,0.274l0.507,0.276l0.509,0.28l0.505,0.28l0.503,0.283l0.499,0.284l0.503,0.288l0.497,0.288l0.5,0.292l0.495,0.294l0.493,0.295l0.493,0.297l0.495,0.302l0.487,0.301l0.491,0.305l0.486,0.306l0.485,0.308l0.483,0.311l0.483,0.313l0.48,0.314l0.48,0.318l0.477,0.318l0.476,0.322l0.474,0.323l0.064,0.044l0.406,0.287l0.467,0.333l0.465,0.336l0.465,0.338l0.461,0.34l0.461,0.342l0.458,0.343l0.457,0.347l0.454,0.347l0.453,0.35l0.451,0.352l0.45,0.354l0.448,0.356l0.444,0.358l0.208,0.602l0,0l-0.629,0.101l-0.523,-0.223l-0.523,-0.219l-0.523,-0.217l-0.524,-0.215l-0.524,-0.211l-0.525,-0.209l-0.526,-0.206l-0.526,-0.204l-0.527,-0.202l-0.527,-0.198l-0.527,-0.195l-0.527,-0.193l-0.529,-0.19l-0.457,-0.163l-0.072,-0.027l-0.526,-0.191l-0.527,-0.19l-0.527,-0.186l-0.527,-0.184l-0.528,-0.182l-0.527,-0.178l-0.531,-0.177l-0.528,-0.174l-0.529,-0.17l-0.531,-0.17l-0.53,-0.166l-0.531,-0.164l-0.531,-0.161l-0.532,-0.159l-0.531,-0.155l-0.532,-0.154l-0.531,-0.15l-0.534,-0.15l-0.533,-0.146l-0.534,-0.143l-0.534,-0.141l-0.531,-0.138l-0.537,-0.137l-0.533,-0.133l-0.534,-0.131l-0.536,-0.129l-0.532,-0.126l-0.536,-0.124l-0.536,-0.121l-0.533,-0.118l-0.539,-0.117l-0.534,-0.114l-0.536,-0.111l-0.361,-0.074l-0.172,-0.037l-0.535,-0.116l-0.534,-0.112l-0.531,-0.109l-0.536,-0.109l-0.534,-0.105l-0.532,-0.102l-0.535,-0.101l-0.533,-0.098l-0.535,-0.096l-0.532,-0.092l-0.536,-0.091l-0.536,-0.089l-0.533,-0.086l-0.532,-0.083l-0.536,-0.082l-0.534,-0.079l-0.536,-0.077l-0.533,-0.074l-0.531,-0.071l-0.539,-0.07l-0.216,-0.027l-0.313,-0.045l-0.535,-0.074l-0.53,-0.071l-0.535,-0.07l-0.531,-0.066l-0.531,-0.064l-0.535,-0.063l-0.529,-0.059l-0.53,-0.057l-0.53,-0.055l-0.53,-0.052l-0.534,-0.051l-0.53,-0.048l-0.536,-0.047l-0.529,-0.043l-0.528,-0.041l-0.534,-0.039l-0.53,-0.037l-0.528,-0.034l-0.529,-0.032l-0.528,-0.03l-0.384,-0.02l-0.143,-0.011l-0.532,-0.039l-0.525,-0.036l-0.532,-0.034l-0.519,-0.031l-0.531,-0.03l-0.525,-0.027l-0.525,-0.025l-0.525,-0.022l-0.529,-0.021l-0.524,-0.018l-0.525,-0.016l-0.523,-0.014l-0.529,-0.012l-0.516,-0.008l-0.529,-0.008l-0.522,-0.004l-0.528,-0.003l-0.514,0l-0.528,0.001l-0.521,0.005l-0.079,0.001l-0.44,-0.008l-0.525,-0.006l-0.519,-0.004l-0.518,-0.002l-0.518,0.001l-0.517,0.002l-0.524,0.005l-0.516,0.007l-0.524,0.009l-0.281,0.006l-0.227,-0.001l-0.522,-0.001l-0.522,0.002l-0.514,0.004l-0.514,0.006l-0.514,0.008l-0.52,0.01l-0.52,0.013l-0.508,0.014l-0.079,0.003l-0.412,0.001l-0.489,0.004l-0.488,0.005l-0.481,0.008l-0.496,0.009l-0.487,0.012l-0.487,0.013l-0.488,0.015l-0.443,0.016l-0.044,0.001l-0.487,0.009l-0.481,0.01l-0.495,0.013l-0.487,0.015l-0.488,0.017l-0.487,0.019l-0.488,0.02l-0.488,0.023l-0.463,0.023l-0.019,0.001l-0.496,0.014l-0.49,0.016l-0.484,0.018l-0.483,0.019l-0.498,0.023l-0.485,0.023l-0.492,0.026l-0.492,0.028l-0.493,0.03l-0.493,0.032l-0.487,0.034l-0.495,0.036l-0.488,0.037l-0.489,0.04l-0.497,0.042l-0.497,0.045l-0.491,0.046l-0.491,0.048l-0.291,0.029l-0.21,0.016l-0.495,0.038l-0.497,0.04l-0.497,0.043l-0.498,0.045l-0.499,0.046l-0.507,0.05l-0.495,0.05l-0.502,0.053l-0.503,0.055l-0.504,0.057l-0.505,0.06l-0.5,0.06l-0.507,0.064l-0.508,0.065l-0.503,0.067l-0.511,0.07l-0.506,0.071l-0.507,0.073l-0.123,0.018l-0.392,0.051l-0.511,0.066l-0.513,0.069l-0.514,0.072l-0.516,0.073l-0.516,0.075l-0.518,0.078l-0.519,0.08l-0.515,0.08l-0.527,0.086l-0.518,0.085l-0.518,0.087l-0.532,0.092l-0.521,0.091l-0.524,0.094l-0.529,0.097l-0.526,0.098l-0.527,0.1l-0.107,0.021l-0.429,0.074l-0.528,0.091l-0.541,0.097l-0.531,0.096l-0.543,0.102l-0.534,0.1l-0.541,0.104l-0.543,0.106l-0.543,0.109l-0.545,0.11l-0.543,0.112l-0.543,0.113l-0.55,0.117l-0.551,0.12l-0.549,0.12l-0.549,0.122l-0.556,0.126l-0.553,0.126l-0.555,0.129l-0.556,0.131l-0.557,0.133l-0.559,0.135l-0.561,0.138l-0.561,0.139l-0.565,0.142l-0.565,0.144l-0.567,0.146l-0.565,0.147l-0.569,0.15l-0.572,0.153l-0.57,0.153l-0.435,0.119l-0.14,0.035l-0.577,0.148l-0.581,0.152l-0.581,0.152l-0.585,0.156l-0.583,0.157l-0.585,0.159l-0.59,0.162l-0.589,0.163l-0.59,0.165l-0.594,0.168l0.004,-0.001l-0.597,0.171l-0.594,0.17l-0.597,0.174l-0.6,0.176l-0.601,0.179l0.002,-0.002l-0.602,0.18l-0.605,0.183l-0.605,0.184l-0.606,0.186l-0.609,0.188l-0.611,0.19l-0.612,0.192l-0.614,0.195l-0.547,-0.192l0.192,-0.547l0.537,-0.359l0.536,-0.357l0.534,-0.354l0.535,-0.353l0.533,-0.349l0.535,-0.349l0.532,-0.345l0.532,-0.344l0.532,-0.341l0.531,-0.34l0.531,-0.337l0.527,-0.333l0.531,-0.333l0.529,-0.331l0.528,-0.328l0.529,-0.327l0.528,-0.324l0.525,-0.321l0.525,-0.319l0.527,-0.317l0.527,-0.316l0.527,-0.314l0.523,-0.31l0.128,-0.075l0.402,-0.227l0.523,-0.295l0.53,-0.297l0.527,-0.292l0.525,-0.29l0.529,-0.289l0.526,-0.287l0.526,-0.284l0.525,-0.282l0.525,-0.279l0.525,-0.278l0.525,-0.276l0.525,-0.273l0.526,-0.272l0.524,-0.269l0.526,-0.268l0.521,-0.264l0.52,-0.261l0.526,-0.262l0.521,-0.257l0.525,-0.257l0.521,-0.254l0.527,-0.253l0.521,-0.249l0.522,-0.248l0.527,-0.247l0.517,-0.241l0.522,-0.241l0.528,-0.241l0.517,-0.236l0.523,-0.235l0.419,-0.186l0.106,-0.044l0.528,-0.22l0.522,-0.216l0.527,-0.216l0.529,-0.213l0.524,-0.21l0.528,-0.21l0.525,-0.206l0.524,-0.203l0.531,-0.204l0.525,-0.199l0.525,-0.198l0.526,-0.195l0.527,-0.194l0.527,-0.191l0.521,-0.188l0.535,-0.189l0.525,-0.185l0.402,-0.139l0.127,-0.041l0.529,-0.17l0.527,-0.167l0.533,-0.167l0.53,-0.163l0.532,-0.162l0.527,-0.159l0.533,-0.157l0.532,-0.155l0.531,-0.153l0.53,-0.15l0.531,-0.149l0.531,-0.146l0.532,-0.144l0.534,-0.142l0.533,-0.14l0.534,-0.138l0.535,-0.135l0.532,-0.133l0.223,-0.055l0.313,-0.069l0.532,-0.114l0.539,-0.114l0.539,-0.111l0.534,-0.108l0.537,-0.107l0.538,-0.104l0.538,-0.102l0.535,-0.1l0.543,-0.098l0.536,-0.095l0.537,-0.093l0.541,-0.092l0.538,-0.088l0.541,-0.087l0.539,-0.085l0.539,-0.082l0.544,-0.08l0.544,-0.078l0.021,-0.003l0.517,-0.06l0.542,-0.061l0.546,-0.058l0.543,-0.056l0.54,-0.054l0.548,-0.052l0.544,-0.049l0.544,-0.047l0.545,-0.045l0.049,-0.004l0.497,-0.029l0.546,-0.03l0.547,-0.028l0.546,-0.026l0.547,-0.023l0.547,-0.021l0.547,-0.019l0.548,-0.016l0.458,-0.012l0.088,0Z" style="fill:#000;"/></g></svg>