<?xml version="1.0" standalone="no"?><!DOCTYPE svg PUBLIC "-//W3C//DTD SVG 1.1//EN" "http://www.w3.org/Graphics/SVG/1.1/DTD/svg11.dtd"><svg width="100%" height="100%" viewBox="0 0 500 340" version="1.1" xmlns="http://www.w3.org/2000/svg" xmlns:xlink="http://www.w3.org/1999/xlink" xml:space="preserve" style="fill-rule:evenodd;clip-rule:evenodd;stroke-linejoin:round;stroke-miterlimit:1.41421;"><g id="Happy"><path d="M210.534,67.915c0,-2.977 -2.416,-5.393 -5.393,-5.393l-2.7,0c-2.977,0 -5.393,2.416 -5.393,5.393l0,122.464c0,2.976 2.416,5.393 5.393,5.393l2.7,0c2.977,0 5.393,-2.417 5.393,-5.393l0,-122.464Z" style="fill:#000;"/><path d="M302.993,67.916c0,-2.977 -2.417,-5.394 -5.395,-5.394l-2.697,0c-2.977,0 -5.395,2.417 -5.395,5.394l0,122.461c0,2.978 2.418,5.395 5.395,5.395l2.697,0c2.978,0 5.395,-2.417 5.395,-5.395l0,-122.461Z" style="fill:#000;"/><path d="M318.328,259.111l-0.192,0.547l-0.536,0.359l-0.536,0.357l-0.535,0.354l-0.535,0.353l-0.533,0.349l-0.534,0.349l-0.533,0.345l-0.532,0.344l-0.533,0.342l-0.53,0.339l-0.531,0.337l-0.528,0.334l-0.529,0.332l-0.529,0.331l-0.53,0.328l-0.527,0.326l-0.527,0.324l-0.527,0.322l-0.525,0.319l-0.528,0.318l-0.525,0.315l-0.525,0.313l-0.527,0.311l-0.127,0.075l-0.399,0.226l-0.527,0.297l-0.528,0.295l-0.527,0.293l-0.526,0.29l-0.53,0.29l-0.525,0.286l-0.525,0.283l-0.526,0.283l-0.525,0.279l-0.525,0.278l-0.526,0.276l-0.52,0.272l-0.53,0.273l-0.525,0.27l-0.52,0.265l-0.525,0.265l-0.522,0.263l-0.525,0.261l-0.52,0.257l-0.526,0.257l-0.521,0.254l-0.527,0.253l-0.521,0.249l-0.521,0.247l-0.528,0.248l-0.516,0.241l-0.523,0.241l-0.523,0.24l-0.522,0.237l-0.523,0.235l-0.42,0.187l-0.106,0.044l-0.527,0.219l-0.528,0.218l-0.521,0.214l-0.529,0.213l-0.529,0.212l-0.519,0.206l-0.529,0.208l-0.529,0.205l-0.52,0.2l-0.531,0.202l-0.526,0.197l-0.526,0.196l-0.526,0.193l-0.527,0.191l-0.521,0.188l-0.535,0.189l-0.521,0.184l-0.403,0.139l-0.128,0.042l-0.531,0.17l-0.527,0.167l-0.534,0.167l-0.533,0.164l-0.528,0.161l-0.528,0.159l-0.535,0.158l-0.53,0.155l-0.53,0.152l-0.536,0.152l-0.531,0.148l-0.533,0.146l-0.531,0.144l-0.526,0.141l-0.533,0.14l-0.535,0.138l-0.528,0.134l-0.541,0.135l-0.221,0.054l-0.31,0.068l-0.538,0.116l-0.54,0.113l-0.532,0.111l-0.54,0.109l-0.534,0.106l-0.541,0.104l-0.535,0.102l-0.542,0.101l-0.536,0.097l-0.537,0.095l-0.536,0.093l-0.538,0.091l-0.543,0.09l-0.539,0.086l-0.539,0.085l-0.539,0.082l-0.547,0.081l-0.533,0.077l-0.022,0.003l-0.527,0.06l-0.542,0.061l-0.543,0.058l-0.536,0.056l-0.551,0.054l-0.544,0.052l-0.544,0.049l-0.544,0.047l-0.545,0.045l-0.049,0.004l-0.497,0.029l-0.546,0.03l-0.547,0.028l-0.546,0.026l-0.547,0.023l-0.547,0.021l-0.547,0.019l-0.548,0.016l-0.458,0.012l-0.088,0l-0.577,-0.002l-0.58,-0.005l-0.574,-0.008l-0.58,-0.01l-0.581,-0.012l-0.574,-0.015l-0.58,-0.017l-0.581,-0.02l-0.26,-0.01l-0.32,-0.02l-0.573,-0.039l-0.58,-0.042l-0.573,-0.043l-0.58,-0.047l-0.579,-0.049l-0.58,-0.051l-0.579,-0.054l-0.572,-0.056l-0.491,-0.05l-0.088,-0.011l-0.577,-0.076l-0.571,-0.078l-0.584,-0.081l-0.57,-0.083l-0.576,-0.086l-0.576,-0.088l-0.569,-0.09l-0.581,-0.093l-0.568,-0.095l-0.574,-0.098l-0.575,-0.101l-0.567,-0.102l-0.572,-0.105l-0.573,-0.108l-0.565,-0.109l-0.572,-0.113l-0.571,-0.114l-0.571,-0.118l-0.57,-0.12l-0.57,-0.122l-0.153,-0.033l-0.408,-0.1l-0.567,-0.14l-0.566,-0.143l-0.559,-0.144l-0.565,-0.147l-0.564,-0.15l-0.557,-0.151l-0.569,-0.156l-0.556,-0.155l-0.561,-0.16l-0.56,-0.161l-0.555,-0.163l-0.558,-0.166l-0.559,-0.169l-0.552,-0.17l-0.556,-0.174l-0.556,-0.175l-0.555,-0.179l-0.549,-0.179l-0.554,-0.183l-0.552,-0.185l-0.324,-0.111l-0.222,-0.079l-0.548,-0.199l-0.544,-0.2l-0.542,-0.202l-0.546,-0.206l-0.544,-0.207l-0.545,-0.211l-0.538,-0.211l-0.542,-0.215l-0.536,-0.216l-0.54,-0.22l-0.534,-0.22l-0.534,-0.223l-0.537,-0.227l-0.532,-0.227l-0.533,-0.231l-0.53,-0.232l-0.532,-0.236l-0.527,-0.236l-0.527,-0.239l-0.528,-0.242l-0.169,-0.079l-0.353,-0.17l-0.52,-0.254l-0.519,-0.257l-0.521,-0.259l-0.516,-0.261l-0.518,-0.264l-0.514,-0.265l-0.51,-0.266l-0.514,-0.27l-0.51,-0.272l-0.511,-0.275l-0.505,-0.275l-0.508,-0.279l-0.502,-0.28l-0.506,-0.284l-0.501,-0.285l-0.501,-0.287l-0.499,-0.289l-0.498,-0.291l-0.496,-0.294l-0.492,-0.295l-0.495,-0.298l-0.492,-0.3l-0.489,-0.302l-0.49,-0.305l-0.486,-0.306l-0.485,-0.308l-0.484,-0.311l-0.482,-0.313l-0.481,-0.315l-0.48,-0.317l-0.476,-0.318l-0.476,-0.321l-0.473,-0.323l-0.065,-0.045l-0.406,-0.287l-0.466,-0.333l-0.466,-0.336l-0.464,-0.338l-0.462,-0.34l-0.461,-0.342l-0.458,-0.343l-0.457,-0.346l-0.454,-0.348l-0.453,-0.35l-0.451,-0.352l-0.45,-0.354l-0.448,-0.356l-0.444,-0.358l-0.208,-0.602l0.629,-0.101l0.523,0.223l0.523,0.219l0.523,0.217l0.524,0.215l0.524,0.211l0.525,0.209l0.526,0.206l0.526,0.204l0.526,0.201l0.527,0.198l0.528,0.196l0.528,0.193l0.528,0.191l0.457,0.162l0.072,0.027l0.526,0.191l0.526,0.189l0.527,0.187l0.528,0.184l0.528,0.182l0.528,0.178l0.53,0.177l0.529,0.174l0.528,0.171l0.531,0.169l0.53,0.166l0.531,0.164l0.531,0.161l0.531,0.158l0.532,0.157l0.532,0.153l0.533,0.151l0.532,0.149l0.534,0.146l0.533,0.143l0.534,0.142l0.531,0.137l0.537,0.137l0.533,0.133l0.535,0.132l0.532,0.127l0.535,0.127l0.536,0.124l0.536,0.121l0.533,0.118l0.536,0.117l0.537,0.114l0.536,0.112l0.361,0.073l0.172,0.037l0.535,0.116l0.534,0.112l0.531,0.11l0.535,0.108l0.535,0.105l0.532,0.102l0.536,0.101l0.531,0.097l0.536,0.097l0.533,0.092l0.536,0.092l0.536,0.089l0.533,0.085l0.531,0.083l0.537,0.082l0.532,0.079l0.537,0.077l0.532,0.074l0.537,0.072l0.532,0.069l0.218,0.027l0.314,0.045l0.535,0.074l0.53,0.071l0.53,0.069l0.535,0.067l0.53,0.064l0.53,0.062l0.535,0.06l0.535,0.058l0.525,0.054l0.535,0.053l0.53,0.05l0.529,0.048l0.535,0.047l0.529,0.043l0.529,0.041l0.53,0.039l0.528,0.036l0.534,0.035l0.529,0.032l0.528,0.03l0.384,0.02l0.143,0.011l0.532,0.039l0.525,0.036l0.526,0.033l0.531,0.033l0.525,0.029l0.525,0.027l0.525,0.025l0.525,0.022l0.529,0.021l0.524,0.018l0.524,0.016l0.524,0.014l0.529,0.012l0.522,0.009l0.523,0.007l0.522,0.004l0.528,0.003l0.515,0l0.527,-0.001l0.521,-0.005l0.079,0l0.44,0.007l0.525,0.006l0.519,0.004l0.518,0.002l0.518,-0.001l0.524,-0.002l0.51,-0.005l0.523,-0.007l0.524,-0.009l0.281,-0.006l0.227,0.001l0.522,0.001l0.515,-0.002l0.521,-0.004l0.514,-0.006l0.514,-0.008l0.52,-0.01l0.52,-0.013l0.508,-0.014l0.079,-0.003l0.412,-0.001l0.489,-0.004l0.488,-0.005l0.488,-0.008l0.488,-0.009l0.488,-0.012l0.48,-0.013l0.495,-0.015l0.443,-0.016l0.044,-0.001l0.487,-0.009l0.481,-0.01l0.495,-0.013l0.487,-0.015l0.488,-0.017l0.487,-0.019l0.482,-0.02l0.494,-0.023l0.463,-0.023l0.018,-0.001l0.497,-0.014l0.483,-0.016l0.491,-0.018l0.491,-0.019l0.49,-0.022l0.484,-0.024l0.493,-0.026l0.492,-0.028l0.493,-0.03l0.493,-0.032l0.487,-0.034l0.494,-0.036l0.489,-0.037l0.496,-0.041l0.496,-0.042l0.491,-0.044l0.49,-0.046l0.492,-0.047l0.291,-0.03l0.21,-0.016l0.496,-0.038l0.496,-0.04l0.497,-0.043l0.498,-0.044l0.499,-0.047l0.507,-0.05l0.494,-0.05l0.509,-0.054l0.497,-0.054l0.504,-0.057l0.506,-0.06l0.498,-0.06l0.502,-0.062l0.516,-0.068l0.501,-0.066l0.506,-0.069l0.511,-0.072l0.507,-0.073l0.121,-0.018l0.388,-0.049l0.518,-0.069l0.512,-0.068l0.514,-0.071l0.516,-0.074l0.515,-0.075l0.518,-0.078l0.519,-0.079l0.521,-0.082l0.517,-0.083l0.522,-0.086l0.52,-0.088l0.531,-0.092l0.521,-0.091l0.524,-0.094l0.528,-0.097l0.527,-0.098l0.532,-0.101l0.105,-0.021l0.427,-0.073l0.527,-0.091l0.535,-0.095l0.537,-0.098l0.539,-0.1l0.538,-0.102l0.54,-0.104l0.543,-0.106l0.543,-0.108l0.546,-0.111l0.543,-0.112l0.544,-0.113l0.549,-0.117l0.547,-0.118l0.552,-0.121l0.55,-0.123l0.552,-0.124l0.554,-0.127l0.557,-0.13l0.557,-0.131l0.556,-0.133l0.56,-0.135l0.56,-0.137l0.564,-0.14l0.563,-0.142l0.562,-0.142l0.569,-0.147l0.566,-0.147l0.57,-0.151l0.567,-0.151l0.574,-0.155l0.435,-0.119l0.141,-0.035l0.576,-0.148l0.582,-0.152l0.579,-0.152l0.586,-0.156l0.583,-0.156l0.585,-0.16l0.589,-0.161l0.587,-0.163l0.592,-0.166l0.593,-0.167l0.594,-0.17l0.596,-0.172l0.598,-0.174l0.597,-0.175l0.602,-0.178l0.602,-0.18l0.602,-0.182l0.607,-0.184l0.606,-0.186l0.608,-0.188l0.611,-0.19l0.612,-0.192l0.614,-0.195l0.547,0.192Z" style="fill:#000;"/></g></svg>