<?xml version="1.0" standalone="no"?><!DOCTYPE svg PUBLIC "-//W3C//DTD SVG 1.1//EN" "http://www.w3.org/Graphics/SVG/1.1/DTD/svg11.dtd"><svg width="100%" height="100%" viewBox="0 0 500 500" version="1.1" xmlns="http://www.w3.org/2000/svg" xmlns:xlink="http://www.w3.org/1999/xlink" xml:space="preserve" style="fill-rule:evenodd;clip-rule:evenodd;stroke-linejoin:round;stroke-miterlimit:1.41421;"><clipPath id="_clip1"><rect x="0" y="0" width="500" height="500"/></clipPath><g clip-path="url(#_clip1)"><g id="Happy"><path d="M207.356,139.694c0,-3.216 -2.611,-5.828 -5.827,-5.828l-2.918,0c-3.217,0 -5.828,2.612 -5.828,5.828l0,132.326c0,3.216 2.611,5.827 5.828,5.827l2.918,0c3.216,0 5.827,-2.611 5.827,-5.827l0,-132.326Z" style="fill:#000;"/><path d="M307.261,139.696c0,-3.218 -2.612,-5.83 -5.829,-5.83l-2.915,0c-3.217,0 -5.829,2.612 -5.829,5.83l0,132.322c0,3.217 2.612,5.829 5.829,5.829l2.915,0c3.217,0 5.829,-2.612 5.829,-5.829l0,-132.322Z" style="fill:#000;"/><path d="M323.831,346.287l-0.208,0.591l-0.579,0.388l-0.58,0.386l-0.578,0.383l-0.577,0.38l-0.577,0.378l-0.577,0.377l-0.576,0.373l-0.574,0.371l-0.573,0.369l-0.576,0.367l-0.573,0.364l-0.572,0.361l-0.571,0.359l-0.571,0.357l-0.57,0.355l-0.572,0.353l-0.57,0.349l-0.571,0.349l-0.57,0.345l-0.566,0.343l-0.568,0.34l-0.571,0.34l-0.564,0.334l-0.137,0.081l-0.433,0.245l-0.572,0.322l-0.569,0.318l-0.568,0.315l-0.568,0.314l-0.572,0.313l-0.568,0.309l-0.566,0.306l-0.568,0.305l-0.568,0.303l-0.569,0.3l-0.568,0.298l-0.562,0.294l-0.571,0.295l-0.563,0.29l-0.566,0.288l-0.57,0.287l-0.568,0.285l-0.563,0.281l-0.562,0.278l-0.565,0.277l-0.566,0.275l-0.566,0.272l-0.567,0.271l-0.564,0.267l-0.561,0.264l-0.568,0.264l-0.564,0.261l-0.562,0.257l-0.563,0.256l-0.568,0.255l-0.452,0.201l-0.114,0.048l-0.565,0.236l-0.57,0.235l-0.572,0.234l-0.566,0.229l-0.567,0.227l-0.572,0.226l-0.566,0.223l-0.568,0.22l-0.573,0.22l-0.569,0.216l-0.569,0.214l-0.57,0.212l-0.571,0.209l-0.569,0.207l-0.558,0.202l-0.578,0.204l-0.566,0.199l-0.432,0.15l-0.136,0.044l-0.575,0.184l-0.57,0.181l-0.578,0.18l-0.57,0.177l-0.573,0.174l-0.572,0.172l-0.572,0.169l-0.582,0.169l-0.573,0.165l-0.575,0.163l-0.575,0.161l-0.576,0.158l-0.571,0.155l-0.577,0.154l-0.571,0.15l-0.579,0.149l-0.579,0.147l-0.574,0.143l-0.239,0.059l-0.336,0.074l-0.583,0.125l-0.577,0.122l-0.578,0.119l-0.578,0.117l-0.585,0.116l-0.581,0.113l-0.579,0.11l-0.588,0.109l-0.574,0.104l-0.588,0.104l-0.575,0.1l-0.583,0.099l-0.584,0.096l-0.584,0.094l-0.577,0.09l-0.585,0.089l-0.593,0.088l-0.579,0.083l-0.024,0.004l-0.571,0.065l-0.581,0.065l-0.581,0.063l-0.59,0.061l-0.597,0.059l-0.582,0.055l-0.591,0.054l-0.583,0.05l-0.591,0.049l-0.053,0.004l-0.532,0.032l-0.592,0.032l-0.593,0.03l-0.585,0.028l-0.594,0.025l-0.593,0.023l-0.594,0.02l-0.587,0.018l-0.497,0.013l-0.095,0l-0.626,-0.003l-0.63,-0.005l-0.615,-0.008l-0.63,-0.011l-0.622,-0.013l-0.623,-0.017l-0.629,-0.018l-0.623,-0.022l-0.278,-0.01l-0.344,-0.022l-0.629,-0.042l-0.622,-0.045l-0.629,-0.048l-0.615,-0.049l-0.628,-0.053l-0.622,-0.056l-0.628,-0.058l-0.621,-0.06l-0.533,-0.054l-0.095,-0.012l-0.626,-0.083l-0.619,-0.084l-0.619,-0.087l-0.618,-0.09l-0.625,-0.093l-0.624,-0.095l-0.618,-0.098l-0.623,-0.1l-0.617,-0.103l-0.616,-0.106l-0.622,-0.108l-0.615,-0.111l-0.614,-0.113l-0.622,-0.117l-0.614,-0.118l-0.619,-0.122l-0.613,-0.124l-0.618,-0.127l-0.612,-0.129l-0.612,-0.131l-0.167,-0.037l-0.448,-0.108l-0.614,-0.152l-0.608,-0.153l-0.607,-0.156l-0.611,-0.16l-0.606,-0.161l-0.611,-0.165l-0.604,-0.166l-0.603,-0.169l-0.608,-0.172l-0.601,-0.174l-0.607,-0.178l-0.595,-0.178l-0.604,-0.182l-0.599,-0.184l-0.603,-0.188l-0.597,-0.189l-0.597,-0.192l-0.595,-0.195l-0.6,-0.198l-0.594,-0.199l-0.351,-0.12l-0.241,-0.086l-0.594,-0.215l-0.589,-0.216l-0.587,-0.219l-0.591,-0.223l-0.582,-0.222l-0.584,-0.227l-0.588,-0.23l-0.583,-0.231l-0.582,-0.234l-0.584,-0.238l-0.575,-0.237l-0.582,-0.243l-0.577,-0.244l-0.572,-0.245l-0.578,-0.25l-0.57,-0.25l-0.576,-0.255l-0.568,-0.255l-0.574,-0.259l-0.569,-0.262l-0.182,-0.085l-0.38,-0.183l-0.563,-0.275l-0.562,-0.277l-0.564,-0.281l-0.556,-0.281l-0.557,-0.284l-0.556,-0.287l-0.556,-0.289l-0.554,-0.292l-0.548,-0.293l-0.551,-0.296l-0.547,-0.298l-0.551,-0.302l-0.546,-0.304l-0.542,-0.305l-0.541,-0.307l-0.541,-0.31l-0.54,-0.313l-0.537,-0.315l-0.537,-0.317l-0.533,-0.319l-0.533,-0.322l-0.531,-0.324l-0.53,-0.327l-0.527,-0.328l-0.527,-0.332l-0.526,-0.333l-0.522,-0.336l-0.522,-0.338l-0.518,-0.34l-0.518,-0.342l-0.516,-0.345l-0.514,-0.347l-0.513,-0.35l-0.069,-0.047l-0.438,-0.31l-0.504,-0.36l-0.503,-0.363l-0.501,-0.365l-0.5,-0.368l-0.497,-0.369l-0.495,-0.371l-0.494,-0.374l-0.491,-0.376l-0.49,-0.378l-0.487,-0.38l-0.486,-0.383l-0.483,-0.385l-0.481,-0.386l-0.224,-0.651l0,0l0.68,-0.109l0.565,0.241l0.564,0.237l0.566,0.234l0.566,0.232l0.566,0.229l0.568,0.225l0.568,0.224l0.568,0.22l0.569,0.217l0.57,0.214l0.569,0.211l0.571,0.209l0.571,0.206l0.494,0.176l0.077,0.028l0.568,0.207l0.568,0.204l0.571,0.203l0.569,0.198l0.571,0.196l0.57,0.193l0.571,0.191l0.574,0.189l0.571,0.184l0.572,0.182l0.574,0.18l0.573,0.176l0.575,0.175l0.573,0.171l0.574,0.168l0.576,0.167l0.574,0.163l0.575,0.16l0.577,0.158l0.576,0.155l0.578,0.153l0.576,0.149l0.576,0.147l0.58,0.145l0.577,0.142l0.577,0.139l0.577,0.136l0.578,0.133l0.578,0.131l0.578,0.128l0.581,0.127l0.578,0.123l0.579,0.12l0.392,0.08l0.187,0.041l0.572,0.123l0.58,0.122l0.572,0.118l0.581,0.117l0.576,0.114l0.574,0.11l0.577,0.108l0.578,0.106l0.581,0.105l0.573,0.099l0.578,0.099l0.578,0.095l0.577,0.093l0.579,0.091l0.574,0.087l0.578,0.086l0.578,0.083l0.578,0.08l0.578,0.078l0.579,0.075l0.234,0.03l0.338,0.048l0.576,0.08l0.576,0.077l0.572,0.073l0.576,0.073l0.576,0.07l0.571,0.066l0.576,0.065l0.576,0.062l0.571,0.059l0.576,0.057l0.576,0.055l0.57,0.051l0.576,0.05l0.575,0.048l0.571,0.044l0.575,0.042l0.569,0.039l0.576,0.038l0.568,0.034l0.575,0.032l0.419,0.022l0.155,0.012l0.566,0.042l0.572,0.039l0.566,0.036l0.572,0.035l0.571,0.032l0.565,0.029l0.571,0.027l0.565,0.024l0.564,0.022l0.571,0.02l0.57,0.017l0.57,0.016l0.563,0.012l0.569,0.01l0.562,0.007l0.562,0.005l0.568,0.003l0.568,0.001l0.561,-0.003l0.566,-0.004l0.086,-0.001l0.48,0.008l0.558,0.007l0.565,0.004l0.558,0.002l0.564,0l0.563,-0.003l0.557,-0.005l0.563,-0.008l0.555,-0.01l0.311,-0.007l0.251,0.002l0.561,0.001l0.554,-0.002l0.561,-0.004l0.56,-0.007l0.56,-0.008l0.552,-0.012l0.559,-0.013l0.554,-0.016l0.085,-0.003l0.443,-0.001l0.526,-0.004l0.533,-0.006l0.525,-0.008l0.532,-0.01l0.525,-0.013l0.524,-0.014l0.531,-0.017l0.477,-0.017l0.047,-0.001l0.525,-0.009l0.525,-0.012l0.531,-0.014l0.525,-0.015l0.524,-0.018l0.525,-0.021l0.532,-0.022l0.525,-0.025l0.512,-0.026l0.021,0l0.519,-0.015l0.528,-0.017l0.533,-0.019l0.529,-0.022l0.528,-0.023l0.528,-0.026l0.537,-0.029l0.523,-0.029l0.538,-0.033l0.523,-0.034l0.532,-0.036l0.532,-0.039l0.527,-0.041l0.539,-0.044l0.528,-0.045l0.535,-0.048l0.535,-0.05l0.531,-0.051l0.309,-0.031l0.222,-0.017l0.541,-0.042l0.54,-0.044l0.543,-0.047l0.536,-0.048l0.538,-0.05l0.539,-0.052l0.547,-0.056l0.541,-0.057l0.543,-0.06l0.537,-0.06l0.544,-0.064l0.551,-0.067l0.547,-0.069l0.548,-0.071l0.542,-0.071l0.551,-0.076l0.544,-0.076l0.547,-0.079l0.132,-0.02l0.423,-0.054l0.552,-0.072l0.559,-0.075l0.555,-0.077l0.561,-0.08l0.558,-0.082l0.558,-0.083l0.56,-0.086l0.561,-0.088l0.558,-0.09l0.565,-0.093l0.565,-0.095l0.568,-0.098l0.562,-0.099l0.571,-0.102l0.572,-0.105l0.566,-0.105l0.569,-0.109l0.115,-0.022l0.465,-0.08l0.574,-0.1l0.578,-0.103l0.581,-0.106l0.579,-0.107l0.583,-0.11l0.585,-0.113l0.579,-0.112l0.588,-0.117l0.59,-0.12l0.59,-0.122l0.586,-0.122l0.594,-0.127l0.592,-0.127l0.592,-0.13l0.599,-0.133l0.595,-0.135l0.602,-0.138l0.599,-0.139l0.6,-0.141l0.602,-0.144l0.61,-0.148l0.6,-0.146l0.609,-0.152l0.609,-0.153l0.61,-0.155l0.609,-0.157l0.618,-0.161l0.608,-0.16l0.621,-0.166l0.617,-0.166l0.469,-0.128l0.151,-0.038l0.625,-0.161l0.629,-0.164l0.627,-0.165l0.629,-0.167l0.631,-0.169l0.634,-0.173l0.634,-0.174l0.64,-0.177l0.638,-0.179l0.639,-0.18l0.641,-0.183l0.644,-0.186l0.644,-0.187l0.647,-0.19l0.651,-0.193l0.648,-0.194l0.653,-0.196l0.654,-0.199l0.656,-0.201l0.659,-0.204l-0.002,0l0.66,-0.205l0.662,-0.208l0.663,-0.21l0.592,0.207Z" style="fill:#000;"/></g></g></svg>