<?xml version="1.0" standalone="no"?><!DOCTYPE svg PUBLIC "-//W3C//DTD SVG 1.1//EN" "http://www.w3.org/Graphics/SVG/1.1/DTD/svg11.dtd"><svg width="100%" height="100%" viewBox="0 0 500 340" version="1.1" xmlns="http://www.w3.org/2000/svg" xmlns:xlink="http://www.w3.org/1999/xlink" xml:space="preserve" style="fill-rule:evenodd;clip-rule:evenodd;stroke-linecap:round;stroke-linejoin:round;stroke-miterlimit:1.41421;"><g id="Confused"><g><path d="M210.534,67.915c0,-2.977 -2.416,-5.393 -5.393,-5.393l-2.7,0c-2.977,0 -5.393,2.416 -5.393,5.393l0,122.464c0,2.976 2.416,5.393 5.393,5.393l2.7,0c2.977,0 5.393,-2.417 5.393,-5.393l0,-122.464Z" style="fill:#000;"/><path d="M302.993,67.916c0,-2.977 -2.417,-5.394 -5.395,-5.394l-2.697,0c-2.977,0 -5.395,2.417 -5.395,5.394l0,122.461c0,2.978 2.418,5.395 5.395,5.395l2.697,0c2.978,0 5.395,-2.417 5.395,-5.395l0,-122.461Z" style="fill:#000;"/></g></g><path d="M186.191,278.322l13.751,-28.198l32.212,29.695l18.575,-30.285l18.881,29.654l28.517,-30.552l15.682,39.495" style="fill:none;stroke-width:7.29px;stroke:#000;"/></svg>
