<?xml version="1.0" standalone="no"?><!DOCTYPE svg PUBLIC "-//W3C//DTD SVG 1.1//EN" "http://www.w3.org/Graphics/SVG/1.1/DTD/svg11.dtd"><svg width="100%" height="100%" viewBox="0 0 500 340" version="1.1" xmlns="http://www.w3.org/2000/svg" xmlns:xlink="http://www.w3.org/1999/xlink" xml:space="preserve" style="fill-rule:evenodd;clip-rule:evenodd;stroke-linejoin:round;stroke-miterlimit:1.41421;"><g id="Shy"><path d="M239.171,48.249l-0.172,0.429l-0.174,0.427l-0.177,0.425l-0.178,0.423l-0.18,0.422l-0.182,0.42l-0.184,0.418l-0.186,0.416l-0.189,0.415l-0.19,0.413l-0.192,0.411l-0.195,0.409l-0.196,0.407l-0.199,0.406l-0.201,0.404l-0.203,0.402l-0.205,0.4l-0.207,0.398l-0.21,0.397l-0.212,0.395l-0.214,0.393l-0.216,0.391l-0.219,0.389l-0.221,0.387l-0.223,0.386l-0.226,0.383l-0.228,0.382l-0.23,0.379l-0.233,0.378l-0.235,0.376l-0.238,0.374l-0.24,0.371l-0.243,0.37l-0.245,0.368l-0.247,0.366l-0.249,0.362l-0.127,0.183l-0.127,0.18l-0.128,0.181l-0.128,0.179l-0.129,0.18l-0.128,0.178l-0.131,0.178l-0.13,0.178l-0.131,0.177l-0.132,0.176l-0.133,0.176l-0.133,0.175l-0.133,0.175l-0.135,0.175l-0.136,0.174l-0.135,0.173l-0.138,0.173l-0.136,0.172l-0.139,0.172l-0.139,0.172l-0.138,0.17l-0.141,0.17l-0.14,0.169l-0.142,0.169l-0.142,0.169l-0.142,0.167l-0.144,0.168l-0.145,0.167l-0.143,0.165l-0.147,0.166l-0.146,0.166l-0.148,0.164l-0.147,0.163l-0.149,0.164l-0.149,0.163l-0.15,0.162l-0.15,0.162l-0.152,0.161l-0.152,0.16l-0.153,0.16l-0.154,0.159l-0.154,0.159l-0.155,0.158l-0.156,0.158l-0.156,0.156l-0.158,0.157l-0.158,0.155l-0.159,0.155l-0.159,0.155l-0.16,0.153l-0.162,0.154l-0.161,0.152l-0.162,0.152l-0.164,0.151l-0.164,0.151l-0.165,0.15l-0.165,0.149l-0.167,0.149l-0.167,0.149l-0.169,0.147l-0.168,0.147l-0.169,0.146l-0.171,0.146l-0.171,0.145l-0.171,0.143l-0.173,0.144l-0.173,0.143l-0.175,0.143l-0.174,0.141l-0.175,0.14l-0.177,0.141l-0.177,0.139l-0.178,0.139l-0.179,0.138l-0.18,0.138l-0.181,0.137l-0.181,0.136l-0.181,0.135l-0.184,0.135l-0.184,0.134l-0.183,0.132l-0.185,0.133l-0.186,0.132l-0.188,0.131l-0.187,0.131l-0.189,0.129l-0.189,0.129l-0.19,0.128l-0.19,0.127l-0.192,0.127l-0.192,0.126l-0.194,0.125l-0.194,0.125l-0.195,0.124l-0.195,0.123l-0.197,0.122l-0.197,0.121l-0.198,0.121l-0.199,0.12l-0.2,0.119l-0.202,0.119l-0.2,0.117l-0.201,0.116l-0.202,0.116l-0.204,0.116l-0.205,0.114l-0.205,0.114l-0.208,0.113l-0.207,0.112l-0.208,0.111l-0.208,0.11l-0.208,0.11l-0.212,0.109l-0.21,0.108l-0.213,0.107l-0.212,0.106l-0.214,0.106l-0.213,0.104l-0.216,0.105l-0.216,0.103l-0.215,0.101l-0.218,0.102l-0.22,0.101l-0.218,0.099l-0.221,0.099l-0.22,0.098l-0.221,0.097l-0.223,0.097l-0.223,0.095l-0.224,0.095l-0.224,0.093l-0.227,0.093l-0.225,0.092l-0.228,0.091l-0.228,0.09l-0.228,0.089l-0.23,0.089l-0.23,0.087l-0.232,0.087l-0.231,0.086l-0.233,0.085l-0.235,0.084l-0.233,0.083l-0.236,0.082l-0.236,0.082l-0.236,0.08l-0.238,0.08l-0.239,0.078l-0.238,0.078l-0.24,0.077l-0.242,0.076l-0.241,0.075l-0.242,0.074l-0.243,0.073l-0.243,0.072l-0.247,0.071l-0.244,0.071l-0.246,0.069l-0.248,0.069l-0.246,0.067l-0.25,0.067l-0.249,0.065l-0.249,0.065l-0.252,0.064l-0.252,0.063l-0.253,0.062l-0.253,0.061l-0.253,0.06l-0.255,0.059l-0.254,0.058l-0.258,0.057l-0.257,0.057l-0.258,0.055l-0.26,0.054l-0.258,0.054l-0.261,0.052l-0.259,0.052l-0.262,0.05l-0.264,0.05l-0.263,0.048l-0.263,0.048l-0.249,0.046l-3.257,-0.523l-2.719,-1.678l-1.897,-2.571l-0.79,-3.203l0,0l0,0l0,0l0.522,-3.257l1.678,-2.72l2.571,-1.897l3.203,-0.79l0.218,0.027l0.2,0.026l0.199,0.026l0.199,0.025l0.199,0.024l0.2,0.023l0.198,0.022l0.198,0.021l0.197,0.021l0.195,0.02l0.199,0.018l0.196,0.018l0.196,0.017l0.195,0.016l0.195,0.016l0.197,0.014l0.194,0.014l0.194,0.012l0.194,0.012l0.194,0.011l0.193,0.011l0.194,0.009l0.19,0.009l0.193,0.007l0.193,0.007l0.192,0.006l0.192,0.005l0.189,0.004l0.191,0.004l0.191,0.002l0.189,0.002l0.191,0.001l0.188,0l0.191,0l0.188,-0.002l0.189,-0.002l0.188,-0.004l0.187,-0.003l0.189,-0.006l0.187,-0.005l0.188,-0.007l0.187,-0.007l0.185,-0.008l0.187,-0.01l0.185,-0.009l0.186,-0.011l0.187,-0.012l0.184,-0.012l0.185,-0.013l0.185,-0.014l0.184,-0.015l0.185,-0.016l0.183,-0.016l0.185,-0.018l0.183,-0.018l0.182,-0.019l0.183,-0.02l0.184,-0.02l0.183,-0.022l0.181,-0.022l0.181,-0.023l0.183,-0.024l0.182,-0.025l0.18,-0.025l0.182,-0.027l0.181,-0.027l0.181,-0.029l0.179,-0.028l0.181,-0.03l0.18,-0.031l0.179,-0.031l0.18,-0.032l0.18,-0.033l0.179,-0.034l0.179,-0.035l0.178,-0.036l0.179,-0.036l0.178,-0.037l0.178,-0.038l0.178,-0.039l0.178,-0.04l0.178,-0.04l0.177,-0.042l0.177,-0.042l0.177,-0.043l0.178,-0.044l0.175,-0.045l0.177,-0.045l0.176,-0.047l0.176,-0.047l0.176,-0.048l0.177,-0.049l0.174,-0.049l0.175,-0.051l0.176,-0.051l0.174,-0.052l0.175,-0.053l0.175,-0.054l0.174,-0.055l0.175,-0.056l0.174,-0.056l0.174,-0.058l0.174,-0.058l0.173,-0.058l0.173,-0.06l0.173,-0.061l0.173,-0.061l0.173,-0.062l0.173,-0.064l0.173,-0.064l0.172,-0.064l0.172,-0.066l0.172,-0.066l0.172,-0.068l0.172,-0.068l0.172,-0.069l0.171,-0.07l0.172,-0.071l0.17,-0.071l0.171,-0.072l0.172,-0.074l0.17,-0.074l0.17,-0.075l0.171,-0.075l0.17,-0.077l0.17,-0.078l0.17,-0.078l0.169,-0.079l0.17,-0.08l0.169,-0.081l0.17,-0.082l0.169,-0.082l0.168,-0.083l0.169,-0.085l0.168,-0.084l0.169,-0.087l0.168,-0.086l0.168,-0.088l0.168,-0.088l0.167,-0.089l0.168,-0.09l0.168,-0.091l0.167,-0.092l0.167,-0.093l0.167,-0.093l0.167,-0.095l0.166,-0.094l0.167,-0.097l0.167,-0.097l0.165,-0.097l0.167,-0.099l0.165,-0.099l0.166,-0.101l0.165,-0.101l0.166,-0.102l0.165,-0.102l0.165,-0.104l0.164,-0.104l0.165,-0.105l0.164,-0.106l0.164,-0.107l0.165,-0.108l0.163,-0.108l0.165,-0.11l0.163,-0.11l0.164,-0.111l0.162,-0.112l0.164,-0.113l0.162,-0.113l0.163,-0.114l0.163,-0.115l0.163,-0.117l0.161,-0.116l0.162,-0.118l0.162,-0.119l0.161,-0.118l0.162,-0.121l0.161,-0.121l0.162,-0.122l0.161,-0.122l0.16,-0.123l0.159,-0.123l0.322,-0.252l0.32,-0.254l0.319,-0.258l0.318,-0.26l0.318,-0.264l0.317,-0.266l0.316,-0.271l0.315,-0.273l0.314,-0.276l0.314,-0.28l0.313,-0.282l0.312,-0.286l0.312,-0.289l0.31,-0.292l0.31,-0.295l0.309,-0.298l0.308,-0.301l0.307,-0.305l0.307,-0.307l0.305,-0.31l0.305,-0.313l0.304,-0.317l0.303,-0.319l0.302,-0.322l0.302,-0.325l0.3,-0.328l0.3,-0.331l0.299,-0.334l0.298,-0.336l0.297,-0.34l0.297,-0.342l0.295,-0.346l0.295,-0.348l0.293,-0.351l0.293,-0.353l0.292,-0.357l0.292,-0.359l-0.171,0.43Z" style="fill:#000;"/><path d="M356.93,70.695l1.678,2.72l0.522,3.257l0,0l-0.79,3.203l-1.897,2.571l-2.719,1.678l-3.257,0.523l-0.249,-0.046l-0.263,-0.048l-0.262,-0.048l-0.265,-0.05l-0.262,-0.05l-0.259,-0.052l-0.261,-0.052l-0.259,-0.054l-0.259,-0.054l-0.258,-0.055l-0.257,-0.057l-0.258,-0.057l-0.254,-0.058l-0.255,-0.059l-0.253,-0.06l-0.252,-0.061l-0.255,-0.062l-0.251,-0.063l-0.252,-0.064l-0.249,-0.065l-0.249,-0.065l-0.249,-0.067l-0.246,-0.067l-0.248,-0.069l-0.247,-0.07l-0.244,-0.07l-0.245,-0.071l-0.245,-0.072l-0.243,-0.073l-0.243,-0.075l-0.241,-0.074l-0.241,-0.076l-0.241,-0.077l-0.238,-0.078l-0.238,-0.078l-0.238,-0.08l-0.236,-0.08l-0.236,-0.082l-0.235,-0.082l-0.235,-0.083l-0.235,-0.084l-0.232,-0.085l-0.23,-0.086l-0.233,-0.087l-0.231,-0.087l-0.228,-0.088l-0.229,-0.09l-0.228,-0.09l-0.228,-0.091l-0.225,-0.092l-0.227,-0.093l-0.224,-0.094l-0.225,-0.094l-0.223,-0.096l-0.222,-0.096l-0.221,-0.097l-0.221,-0.098l-0.219,-0.098l-0.218,-0.1l-0.222,-0.101l-0.217,-0.102l-0.214,-0.101l-0.218,-0.104l-0.216,-0.104l-0.213,-0.104l-0.213,-0.106l-0.213,-0.106l-0.211,-0.107l-0.212,-0.108l-0.211,-0.109l-0.21,-0.11l-0.207,-0.11l-0.208,-0.111l-0.207,-0.113l-0.207,-0.112l-0.206,-0.114l-0.203,-0.114l-0.204,-0.115l-0.201,-0.116l-0.204,-0.117l-0.2,-0.118l-0.2,-0.118l-0.201,-0.119l-0.199,-0.12l-0.197,-0.121l-0.199,-0.121l-0.195,-0.122l-0.195,-0.123l-0.195,-0.124l-0.194,-0.124l-0.194,-0.125l-0.192,-0.126l-0.192,-0.127l-0.191,-0.128l-0.191,-0.128l-0.188,-0.129l-0.188,-0.129l-0.189,-0.131l-0.187,-0.131l-0.185,-0.132l-0.185,-0.132l-0.185,-0.134l-0.184,-0.134l-0.184,-0.135l-0.179,-0.134l-0.181,-0.136l-0.182,-0.137l-0.18,-0.138l-0.18,-0.139l-0.176,-0.138l-0.176,-0.138l-0.178,-0.141l-0.176,-0.142l-0.176,-0.142l-0.171,-0.14l-0.175,-0.144l-0.172,-0.143l-0.173,-0.145l-0.171,-0.145l-0.17,-0.145l-0.171,-0.147l-0.166,-0.146l-0.17,-0.148l-0.165,-0.147l-0.167,-0.149l-0.167,-0.151l-0.165,-0.149l-0.162,-0.15l-0.164,-0.152l-0.163,-0.152l-0.161,-0.152l-0.162,-0.154l-0.159,-0.153l-0.162,-0.156l-0.157,-0.154l-0.159,-0.156l-0.157,-0.156l-0.156,-0.156l-0.155,-0.157l-0.155,-0.158l-0.155,-0.16l-0.155,-0.16l-0.152,-0.159l-0.151,-0.159l-0.152,-0.162l-0.152,-0.162l-0.149,-0.162l-0.15,-0.164l-0.148,-0.162l-0.148,-0.164l-0.146,-0.164l-0.148,-0.166l-0.145,-0.165l-0.143,-0.165l-0.146,-0.168l-0.144,-0.168l-0.142,-0.167l-0.141,-0.168l-0.143,-0.17l-0.14,-0.169l-0.141,-0.17l-0.138,-0.171l-0.14,-0.171l-0.137,-0.172l-0.138,-0.172l-0.136,-0.172l-0.137,-0.174l-0.134,-0.173l-0.136,-0.176l-0.134,-0.176l-0.131,-0.172l-0.133,-0.177l-0.133,-0.177l-0.13,-0.176l-0.131,-0.179l-0.131,-0.178l-0.13,-0.179l-0.127,-0.179l-0.128,-0.178l-0.127,-0.181l-0.128,-0.181l-0.126,-0.182l-0.249,-0.363l-0.248,-0.366l-0.245,-0.367l-0.243,-0.371l-0.24,-0.371l-0.238,-0.374l-0.234,-0.375l-0.234,-0.379l-0.23,-0.379l-0.228,-0.381l-0.226,-0.384l-0.223,-0.386l-0.221,-0.387l-0.219,-0.389l-0.216,-0.391l-0.214,-0.393l-0.212,-0.395l-0.21,-0.397l-0.207,-0.398l-0.205,-0.4l-0.203,-0.402l-0.201,-0.404l-0.199,-0.406l-0.196,-0.407l-0.195,-0.409l-0.192,-0.411l-0.19,-0.414l-0.188,-0.414l-0.187,-0.416l-0.184,-0.418l-0.182,-0.42l-0.18,-0.422l-0.178,-0.423l-0.177,-0.425l-0.174,-0.427l-0.172,-0.429l-0.171,-0.43l0.292,0.359l0.292,0.357l0.293,0.353l0.293,0.351l0.295,0.348l0.295,0.346l0.297,0.342l0.297,0.34l0.298,0.336l0.299,0.334l0.3,0.331l0.301,0.328l0.301,0.325l0.302,0.322l0.303,0.319l0.304,0.317l0.305,0.313l0.306,0.31l0.306,0.307l0.307,0.305l0.308,0.301l0.31,0.298l0.309,0.295l0.311,0.292l0.311,0.289l0.312,0.286l0.313,0.283l0.313,0.279l0.315,0.276l0.315,0.274l0.316,0.27l0.317,0.266l0.318,0.264l0.318,0.261l0.319,0.257l0.32,0.254l0.321,0.251l0.16,0.124l0.16,0.123l0.161,0.122l0.162,0.122l0.162,0.122l0.161,0.12l0.161,0.118l0.162,0.12l0.162,0.117l0.161,0.116l0.163,0.117l0.164,0.115l0.162,0.114l0.162,0.113l0.162,0.112l0.164,0.113l0.163,0.11l0.165,0.111l0.164,0.11l0.163,0.108l0.163,0.107l0.165,0.107l0.165,0.107l0.164,0.104l0.166,0.105l0.164,0.103l0.165,0.103l0.166,0.103l0.165,0.1l0.165,0.1l0.167,0.1l0.165,0.098l0.168,0.099l0.166,0.097l0.165,0.095l0.168,0.096l0.166,0.094l0.168,0.094l0.166,0.092l0.166,0.091l0.169,0.092l0.167,0.089l0.169,0.09l0.167,0.088l0.167,0.087l0.168,0.087l0.17,0.087l0.168,0.084l0.17,0.085l0.166,0.082l0.171,0.084l0.17,0.082l0.168,0.08l0.169,0.079l0.171,0.081l0.17,0.078l0.17,0.078l0.169,0.075l0.172,0.077l0.169,0.074l0.17,0.074l0.171,0.073l0.172,0.073l0.171,0.072l0.171,0.071l0.171,0.069l0.172,0.069l0.173,0.069l0.171,0.067l0.173,0.067l0.171,0.065l0.172,0.064l0.172,0.064l0.174,0.064l0.172,0.062l0.174,0.062l0.173,0.06l0.172,0.059l0.175,0.06l0.174,0.058l0.173,0.056l0.174,0.057l0.175,0.056l0.173,0.054l0.177,0.055l0.173,0.052l0.176,0.053l0.176,0.052l0.175,0.05l0.174,0.049l0.176,0.049l0.178,0.049l0.173,0.046l0.176,0.046l0.177,0.046l0.178,0.045l0.175,0.044l0.179,0.044l0.175,0.041l0.178,0.041l0.178,0.041l0.178,0.04l0.178,0.039l0.177,0.038l0.18,0.037l0.179,0.037l0.177,0.035l0.18,0.035l0.179,0.034l0.178,0.032l0.181,0.033l0.179,0.031l0.181,0.031l0.179,0.03l0.181,0.029l0.18,0.028l0.181,0.027l0.181,0.026l0.181,0.026l0.181,0.024l0.182,0.025l0.182,0.023l0.182,0.022l0.183,0.022l0.184,0.02l0.182,0.02l0.183,0.019l0.183,0.018l0.185,0.018l0.183,0.016l0.185,0.016l0.184,0.015l0.185,0.014l0.185,0.013l0.183,0.012l0.187,0.012l0.188,0.011l0.184,0.009l0.187,0.01l0.185,0.008l0.187,0.007l0.188,0.007l0.188,0.006l0.187,0.004l0.188,0.004l0.188,0.004l0.189,0.002l0.189,0.002l0.189,0l0.188,0l0.192,-0.001l0.189,-0.002l0.191,-0.002l0.191,-0.004l0.19,-0.004l0.191,-0.005l0.192,-0.006l0.193,-0.007l0.193,-0.007l0.19,-0.009l0.195,-0.009l0.193,-0.011l0.193,-0.011l0.194,-0.012l0.195,-0.012l0.193,-0.014l0.197,-0.014l0.195,-0.016l0.195,-0.016l0.195,-0.017l0.197,-0.018l0.199,-0.018l0.196,-0.02l0.195,-0.021l0.2,-0.021l0.197,-0.022l0.2,-0.023l0.199,-0.024l0.199,-0.025l0.199,-0.026l0.201,-0.026l0.217,-0.027l3.203,0.79l2.571,1.897Z" style="fill:#000;"/><path d="M236.904,67.915c0,-2.977 -2.416,-5.393 -5.393,-5.393l-2.7,0c-2.977,0 -5.393,2.416 -5.393,5.393l0,122.464c0,2.976 2.416,5.393 5.393,5.393l2.7,0c2.977,0 5.393,-2.417 5.393,-5.393l0,-122.464Z" style="fill:#000;"/><path d="M329.363,67.916c0,-2.977 -2.417,-5.394 -5.394,-5.394l-2.698,0c-2.977,0 -5.395,2.417 -5.395,5.394l0,122.461c0,2.978 2.418,5.395 5.395,5.395l2.698,0c2.977,0 5.394,-2.417 5.394,-5.395l0,-122.461Z" style="fill:#000;"/><path d="M244.122,256.516l0.437,0.002l0.446,0.004l0.439,0.005l0.348,0.006l0.092,0.004l0.436,0.024l0.444,0.026l0.435,0.026l0.439,0.029l0.435,0.029l0.443,0.032l0.43,0.031l0.44,0.035l0.438,0.035l0.438,0.037l0.438,0.039l0.43,0.039l0.439,0.041l0.438,0.043l0.447,0.047l0.428,0.044l0.438,0.047l0.437,0.049l0.086,0.01l0.349,0.052l0.433,0.067l0.434,0.068l0.433,0.069l0.433,0.071l0.433,0.072l0.434,0.074l0.432,0.075l0.431,0.077l0.055,0.01l0.374,0.078l0.427,0.091l0.439,0.096l0.426,0.094l0.426,0.095l0.428,0.097l0.425,0.098l0.439,0.103l0.318,0.076l0.103,0.029l0.447,0.126l0.445,0.127l0.448,0.13l0.444,0.13l0.447,0.133l0.446,0.134l0.443,0.136l0.446,0.137l0.109,0.034l0.33,0.116l0.429,0.154l0.448,0.16l0.438,0.159l0.428,0.158l0.443,0.164l0.437,0.165l0.437,0.165l0.428,0.165l0.225,0.087l0.207,0.089l0.435,0.188l0.429,0.188l0.43,0.19l0.42,0.188l0.431,0.194l0.419,0.191l0.422,0.195l0.427,0.197l0.421,0.197l0.425,0.201l0.422,0.201l0.422,0.202l0.42,0.204l0.413,0.203l0.421,0.208l0.411,0.205l0.418,0.209l0.417,0.212l0.418,0.213l0.282,0.146l0.124,0.07l0.415,0.232l0.408,0.231l0.4,0.229l0.408,0.235l0.405,0.235l0.397,0.233l0.399,0.236l0.408,0.242l0.398,0.239l0.399,0.241l0.396,0.242l0.398,0.244l0.393,0.245l0.399,0.248l0.389,0.245l0.394,0.25l0.39,0.25l0.388,0.25l0.393,0.255l0.385,0.253l0.325,0.214l0.06,0.042l0.383,0.266l0.38,0.267l0.378,0.268l0.379,0.271l0.376,0.27l0.375,0.272l0.373,0.273l0.375,0.275l0.372,0.275l0.366,0.275l0.373,0.28l0.368,0.279l0.36,0.277l0.366,0.282l0.364,0.282l0.367,0.286l0.358,0.284l0.361,0.286l0.36,0.287l0.359,0.29l0.195,0.158l0.158,0.135l0.349,0.298l0.346,0.299l0.35,0.303l0.344,0.302l0.344,0.303l0.342,0.304l0.339,0.304l0.341,0.307l0.337,0.307l0.337,0.309l0.335,0.309l0.333,0.31l0.333,0.312l0.332,0.314l0.327,0.311l0.33,0.317l0.324,0.314l0.326,0.317l0.322,0.317l0.322,0.319l0.319,0.319l0.318,0.32l0.315,0.32l0.315,0.322l0.313,0.323l0.312,0.325l0.31,0.325l0.308,0.325l0.307,0.327l0.305,0.328l0.304,0.328l0.301,0.329l0.301,0.331l0.226,0.251l0.07,0.08l0.292,0.34l0.29,0.339l0.287,0.339l0.287,0.341l0.284,0.341l0.284,0.343l0.28,0.343l0.28,0.344l0.278,0.345l0.274,0.345l0.274,0.346l0.272,0.347l0.27,0.347l0.267,0.348l0.11,0.716l-0.725,-0.012l-0.378,-0.217l-0.379,-0.214l-0.38,-0.213l-0.381,-0.211l-0.38,-0.209l-0.382,-0.207l-0.384,-0.206l-0.383,-0.204l-0.384,-0.202l-0.385,-0.201l-0.385,-0.199l-0.387,-0.197l-0.387,-0.195l-0.389,-0.195l-0.093,-0.046l-0.292,-0.152l-0.384,-0.197l-0.386,-0.196l-0.385,-0.193l-0.386,-0.192l-0.387,-0.19l-0.389,-0.19l-0.389,-0.187l-0.39,-0.187l-0.389,-0.184l-0.39,-0.182l-0.393,-0.182l-0.392,-0.179l-0.392,-0.178l-0.392,-0.175l-0.394,-0.175l-0.394,-0.173l-0.394,-0.17l-0.397,-0.171l-0.397,-0.169l-0.395,-0.166l-0.396,-0.164l-0.399,-0.164l-0.396,-0.161l-0.4,-0.161l-0.401,-0.159l-0.398,-0.157l-0.403,-0.157l-0.401,-0.154l-0.4,-0.152l-0.401,-0.15l-0.406,-0.151l-0.401,-0.147l-0.4,-0.145l-0.184,-0.065l-0.218,-0.084l-0.398,-0.151l-0.399,-0.15l-0.399,-0.148l-0.403,-0.148l-0.399,-0.145l-0.402,-0.144l-0.401,-0.142l-0.402,-0.141l-0.4,-0.138l-0.403,-0.138l-0.407,-0.138l-0.404,-0.135l-0.401,-0.132l-0.405,-0.131l-0.407,-0.132l-0.403,-0.127l-0.401,-0.125l-0.413,-0.13l-0.402,-0.122l-0.402,-0.12l-0.066,-0.02l-0.342,-0.112l-0.403,-0.129l-0.399,-0.125l-0.404,-0.126l-0.399,-0.123l-0.407,-0.124l-0.405,-0.122l-0.401,-0.118l-0.402,-0.118l-0.409,-0.119l-0.401,-0.113l-0.409,-0.116l-0.407,-0.113l-0.405,-0.11l-0.402,-0.108l-0.41,-0.11l-0.403,-0.105l-0.405,-0.104l-0.411,-0.106l-0.397,-0.098l-0.414,-0.103l-0.127,-0.031l-0.279,-0.079l-0.4,-0.111l-0.401,-0.11l-0.394,-0.106l-0.405,-0.108l-0.408,-0.108l-0.395,-0.102l-0.401,-0.102l-0.409,-0.104l-0.402,-0.099l-0.401,-0.098l-0.4,-0.096l-0.405,-0.097l-0.402,-0.093l-0.402,-0.093l-0.403,-0.09l-0.405,-0.091l-0.41,-0.09l-0.402,-0.086l-0.395,-0.083l-0.199,-0.041l-0.209,-0.053l-0.392,-0.097l-0.405,-0.099l-0.39,-0.093l-0.401,-0.095l-0.403,-0.094l-0.4,-0.092l-0.398,-0.089l-0.4,-0.089l-0.302,-0.066l-0.097,-0.025l-0.393,-0.102l-0.394,-0.099l-0.396,-0.099l-0.396,-0.097l-0.391,-0.095l-0.398,-0.095l-0.396,-0.093l-0.394,-0.091l-0.093,-0.021l-0.283,-0.077l-0.366,-0.099l-0.375,-0.1l-0.372,-0.098l-0.373,-0.097l-0.374,-0.096l-0.373,-0.094l-0.365,-0.091l-0.326,-0.08l-0.048,-0.013l-0.371,-0.102l-0.37,-0.101l-0.363,-0.098l-0.381,-0.1l-0.362,-0.096l-0.381,-0.097l-0.371,-0.095l-0.373,-0.093l-0.298,-0.074l-0.073,-0.021l-0.371,-0.106l-0.369,-0.104l-0.371,-0.103l-0.371,-0.102l-0.38,-0.103l-0.364,-0.098l-0.374,-0.098l-0.381,-0.099l-0.374,-0.096l-0.374,-0.094l-0.375,-0.094l-0.384,-0.094l-0.376,-0.091l-0.377,-0.09l-0.378,-0.089l-0.378,-0.088l-0.38,-0.086l-0.379,-0.086l-0.081,-0.017l-0.306,-0.08l-0.371,-0.098l-0.389,-0.099l-0.381,-0.096l-0.383,-0.096l-0.382,-0.094l-0.385,-0.094l-0.385,-0.092l-0.386,-0.091l-0.387,-0.09l-0.388,-0.088l-0.398,-0.089l-0.382,-0.086l-0.392,-0.085l-0.392,-0.085l-0.394,-0.083l-0.387,-0.082l-0.404,-0.081l-0.284,-0.058l-0.105,-0.025l-0.398,-0.091l-0.399,-0.09l-0.4,-0.089l-0.394,-0.088l-0.402,-0.087l-0.404,-0.086l-0.405,-0.085l-0.4,-0.083l-0.401,-0.082l-0.416,-0.082l-0.404,-0.08l-0.405,-0.08l-0.406,-0.078l-0.415,-0.077l-0.416,-0.076l-0.411,-0.075l-0.419,-0.074l-0.267,-0.048l-0.14,-0.03l-0.421,-0.085l-0.417,-0.085l-0.418,-0.083l-0.42,-0.082l-0.428,-0.081l-0.416,-0.081l-0.431,-0.079l-0.425,-0.078l-0.428,-0.077l-0.429,-0.077l-0.431,-0.075l-0.426,-0.074l-0.434,-0.073l-0.436,-0.073l-0.437,-0.071l-0.439,-0.07l-0.434,-0.069l-0.442,-0.068l-0.439,-0.068l-0.445,-0.066l-0.441,-0.065l-0.449,-0.064l-0.449,-0.064l-0.447,-0.062l-0.453,-0.061l-0.45,-0.061l-0.452,-0.059l-0.458,-0.059l-0.455,-0.057l-0.456,-0.057l-0.459,-0.056l-0.191,-0.022l-0.273,-0.039l-0.459,-0.065l-0.464,-0.065l-0.466,-0.063l-0.472,-0.062l-0.469,-0.062l-0.471,-0.06l-0.47,-0.06l-0.474,-0.059l-0.479,-0.058l0.004,0l-0.48,-0.057l-0.479,-0.056l-0.479,-0.056l-0.483,-0.054l-0.485,-0.054l-0.487,-0.052l-0.486,-0.052l-0.49,-0.051l-0.491,-0.05l-0.492,-0.049l-0.495,-0.048l0.002,0l-0.496,-0.048l-0.499,-0.046l0.001,0l-0.5,-0.046l-0.517,-0.412l0.412,-0.517l0.478,-0.156l0.477,-0.156l0.477,-0.154l0.475,-0.152l0.476,-0.152l0.473,-0.15l0.474,-0.149l0.472,-0.147l0.472,-0.146l0.472,-0.145l0.469,-0.143l0.471,-0.142l0.468,-0.14l0.468,-0.14l0.468,-0.138l0.467,-0.136l0.466,-0.135l0.466,-0.134l0.466,-0.133l0.465,-0.131l0.462,-0.13l0.461,-0.128l0.466,-0.127l0.27,-0.074l0.191,-0.047l0.462,-0.113l0.463,-0.112l0.46,-0.11l0.462,-0.109l0.459,-0.107l0.459,-0.106l0.458,-0.105l0.458,-0.103l0.457,-0.102l0.458,-0.101l0.459,-0.099l0.454,-0.098l0.457,-0.097l0.456,-0.095l0.453,-0.094l0.456,-0.093l0.456,-0.091l0.452,-0.09l0.452,-0.088l0.452,-0.087l0.456,-0.086l0.451,-0.084l0.449,-0.083l0.451,-0.081l0.452,-0.08l0.451,-0.079l0.451,-0.077l0.448,-0.076l0.455,-0.075l0.447,-0.073l0.451,-0.072l0.155,-0.024l0.293,-0.037l0.447,-0.056l0.447,-0.054l0.451,-0.052l0.447,-0.052l0.447,-0.049l0.447,-0.049l0.447,-0.047l0.447,-0.046l0.447,-0.044l0.443,-0.043l0.447,-0.041l0.447,-0.04l0.443,-0.039l0.447,-0.037l0.443,-0.036l0.447,-0.034l0.443,-0.033l0.121,-0.009l0.325,-0.013l0.443,-0.018l0.442,-0.017l0.446,-0.014l0.438,-0.014l0.446,-0.012l0.442,-0.011l0.438,-0.009l0.442,-0.008l0.442,-0.006l0.442,-0.005l0.442,-0.004l0.446,-0.001l0.438,-0.001l0.442,0.001Z" style="fill:#000;"/><circle cx="144.603" cy="246.681" r="22.83" style="fill:#fd3498;"/><circle cx="355.397" cy="246.681" r="22.83" style="fill:#fd3498;"/></g></svg>
