<?xml version="1.0" standalone="no"?><!DOCTYPE svg PUBLIC "-//W3C//DTD SVG 1.1//EN" "http://www.w3.org/Graphics/SVG/1.1/DTD/svg11.dtd"><svg width="100%" height="100%" viewBox="0 0 500 340" version="1.1" xmlns="http://www.w3.org/2000/svg" xmlns:xlink="http://www.w3.org/1999/xlink" xml:space="preserve" style="fill-rule:evenodd;clip-rule:evenodd;stroke-linejoin:round;stroke-miterlimit:1.41421;"><g id="Afraid"><g><path d="M210.534,67.915c0,-2.977 -2.416,-5.393 -5.393,-5.393l-2.7,0c-2.977,0 -5.393,2.416 -5.393,5.393l0,122.464c0,2.976 2.416,5.393 5.393,5.393l2.7,0c2.977,0 5.393,-2.417 5.393,-5.393l0,-122.464Z" style="fill:#000;"/><path d="M302.993,67.916c0,-2.977 -2.417,-5.394 -5.395,-5.394l-2.697,0c-2.977,0 -5.395,2.417 -5.395,5.394l0,122.461c0,2.978 2.418,5.395 5.395,5.395l2.697,0c2.978,0 5.395,-2.417 5.395,-5.395l0,-122.461Z" style="fill:#000;"/></g><path d="M250,251.582c11.42,0 20.692,-0.731 20.692,10.69c0,11.42 -9.272,5.714 -20.692,5.714c-11.42,0 -20.692,5.706 -20.692,-5.714c0,-11.421 9.272,-10.69 20.692,-10.69Z" style="fill:#000;"/><path d="M327.23,65.297l1.283,2.468l0.231,2.684l-0.787,2.577l-1.772,2.145l0,0l-2.468,1.283l-2.684,0.231l-2.577,-0.787l-2.145,-1.772l-39.496,-60.008l50.415,51.179Z" style="fill:#000;"/><path d="M183.689,74.126l-2.145,1.772l-2.577,0.787l-2.684,-0.231l-2.468,-1.283l-1.772,-2.145l-0.787,-2.577l0.231,-2.684l1.283,-2.468l50.415,-51.179l-39.496,60.008Z" style="fill:#000;"/></g></svg>