<?xml version="1.0" standalone="no"?><!DOCTYPE svg PUBLIC "-//W3C//DTD SVG 1.1//EN" "http://www.w3.org/Graphics/SVG/1.1/DTD/svg11.dtd"><svg width="100%" height="100%" viewBox="0 0 500 500" version="1.1" xmlns="http://www.w3.org/2000/svg" xmlns:xlink="http://www.w3.org/1999/xlink" xml:space="preserve" style="fill-rule:evenodd;clip-rule:evenodd;stroke-linejoin:round;stroke-miterlimit:1.41421;"><path d="M434.082,103.154c-44.681,-56.011 -112.433,-88.632 -184.082,-88.632l0,41.149c59.129,0 115.041,26.921 151.914,73.144l32.168,-25.661Z" style="fill:#fdd74b;"/><path d="M479.497,302.734c3.975,-17.297 5.981,-34.987 5.981,-52.734c0,-53.216 -18.026,-104.863 -51.138,-146.522l-32.213,25.605c27.326,34.379 42.202,77.001 42.202,120.917c0,14.646 -1.656,29.245 -4.936,43.519l40.104,9.215Z" style="fill:#34a8d5;"/><path d="M352.62,461.941c64.488,-31.224 111.251,-90.111 127.057,-159.995l-40.136,-9.078c-13.043,57.673 -51.635,106.269 -104.854,132.037l17.933,37.036Z" style="fill:#f7314a;"/><path d="M149.617,463.01c31.396,14.795 65.675,22.468 100.383,22.468c36.033,0 71.584,-8.269 103.918,-24.171l-18.159,-36.925c-26.684,13.123 -56.023,19.947 -85.759,19.947c-28.643,0 -56.931,-6.332 -82.841,-18.542l-17.542,37.223Z" style="fill:#54b643;"/><path d="M21.323,306.184c17.095,69.58 64.94,127.592 129.994,157.618l17.244,-37.361c-53.686,-24.78 -93.169,-72.654 -107.277,-130.075l-39.961,9.818Z" style="fill:#3463f7;"/><path d="M62.755,107.209c-31.287,41.027 -48.233,91.195 -48.233,142.791c0,19.329 2.38,38.584 7.086,57.331l39.911,-10.019c-3.884,-15.471 -5.848,-31.361 -5.848,-47.312c0,-42.58 13.985,-83.981 39.805,-117.839l-32.721,-24.952Z" style="fill:#bd5ed4;"/><path d="M250,14.522c-73.853,0 -143.427,34.648 -187.928,93.588l32.84,24.795c36.724,-48.64 94.141,-77.234 155.088,-77.234l0,-41.149Z" style="fill:#faa040;"/><path d="M406.549,233.413c-0.169,-0.517 -0.4,-0.807 -0.64,-0.807c-0.034,0 -0.067,0.006 -0.101,0.017l0.051,1.369c0.016,-0.006 0.033,-0.009 0.05,-0.009c0.12,0 0.235,0.145 0.32,0.404l0.32,-0.974Z" style="fill:#ebebeb;"/></svg>