<?xml version="1.0" encoding="UTF-8" standalone="no"?><!DOCTYPE svg PUBLIC "-//W3C//DTD SVG 1.1//EN" "http://www.w3.org/Graphics/SVG/1.1/DTD/svg11.dtd"><svg width="100%" height="100%" viewBox="0 0 24 24" version="1.1" xmlns="http://www.w3.org/2000/svg" xmlns:xlink="http://www.w3.org/1999/xlink" xml:space="preserve" style="fill-rule:evenodd;clip-rule:evenodd;stroke-linejoin:round;stroke-miterlimit:1.41421;"><path d="M12,5c0,0 0,-0.888 0,-1.827c0,-0.364 -0.219,-0.692 -0.556,-0.832c-0.336,-0.139 -0.723,-0.062 -0.98,0.195c-0.95,0.95 -2.12,2.12 -2.828,2.828c-0.168,0.168 -0.263,0.397 -0.263,0.636c0,0.239 0.095,0.468 0.263,0.636c0.708,0.708 1.878,1.878 2.828,2.828c0.257,0.257 0.644,0.334 0.98,0.195c0.337,-0.14 0.556,-0.468 0.556,-0.832c0,-0.939 0,-1.827 0,-1.827c3.31,0 6,2.69 6,6c0,3.31 -2.69,6 -6,6c-3.014,0 -5.515,-2.231 -5.937,-5.129c-0.067,-0.493 -0.487,-0.86 -0.984,-0.86c-0.005,-0.011 -0.01,-0.011 -0.015,-0.011c-0.289,0 -0.564,0.124 -0.754,0.341c-0.191,0.217 -0.279,0.506 -0.241,0.793c0.56,3.882 3.895,6.866 7.931,6.866c4.42,0 8,-3.58 8,-8c0,-4.42 -3.58,-8 -8,-8Z" style="fill:#000;fill-rule:nonzero;"/></svg>