<?xml version="1.0" encoding="UTF-8" standalone="no"?><!DOCTYPE svg PUBLIC "-//W3C//DTD SVG 1.1//EN" "http://www.w3.org/Graphics/SVG/1.1/DTD/svg11.dtd"><svg width="100%" height="100%" viewBox="0 0 500 500" version="1.1" xmlns="http://www.w3.org/2000/svg" xmlns:xlink="http://www.w3.org/1999/xlink" xml:space="preserve" style="fill-rule:evenodd;clip-rule:evenodd;stroke-linecap:round;stroke-linejoin:round;stroke-miterlimit:1.41421;"><g id="Alone"><rect x="167.288" y="129.79" width="165.425" height="248.842" style="fill:none;stroke-width:14.24px;stroke:#0aaada;"/><path d="M364.668,385.63c0,1.287 -1.045,2.332 -2.333,2.332l-224.67,0c-1.288,0 -2.333,-1.045 -2.333,-2.332l0,-4.666c0,-1.287 1.045,-2.332 2.333,-2.332l224.67,0c1.288,0 2.333,1.045 2.333,2.332l0,4.666Z" style="fill:#0aaada;"/><g><path d="M229.113,176.237c0,-2.416 -1.961,-4.377 -4.377,-4.377l-2.191,0c-2.416,0 -4.377,1.961 -4.377,4.377l0,33.845c0,2.416 1.961,4.377 4.377,4.377l2.191,0c2.416,0 4.377,-1.961 4.377,-4.377l0,-33.845Z" style="fill:#0aaada;"/><path d="M281.832,176.237c0,-2.416 -1.961,-4.377 -4.377,-4.377l-2.191,0c-2.416,0 -4.377,1.961 -4.377,4.377l0,33.845c0,2.416 1.961,4.377 4.377,4.377l2.191,0c2.416,0 4.377,-1.961 4.377,-4.377l0,-33.845Z" style="fill:#0aaada;"/></g><circle cx="202.637" cy="275.301" r="12.915" style="fill:#0aaada;"/><path d="M236.523,273.152c0,-1.187 -0.963,-2.15 -2.149,-2.15l-29.607,0c-1.187,0 -2.15,0.963 -2.15,2.15l0,4.299c0,1.186 0.963,2.149 2.15,2.149l29.607,0c1.186,0 2.149,-0.963 2.149,-2.149l0,-4.299Z" style="fill:#0aaada;stroke-width:2.19px;stroke:#fff;"/></g></svg>