<?xml version="1.0" encoding="UTF-8" standalone="no"?><!DOCTYPE svg PUBLIC "-//W3C//DTD SVG 1.1//EN" "http://www.w3.org/Graphics/SVG/1.1/DTD/svg11.dtd"><svg width="100%" height="100%" viewBox="0 0 500 500" version="1.1" xmlns="http://www.w3.org/2000/svg" xmlns:xlink="http://www.w3.org/1999/xlink" xml:space="preserve" style="fill-rule:evenodd;clip-rule:evenodd;stroke-linejoin:round;stroke-miterlimit:1.41421;"><g id="Share"><circle cx="249.883" cy="250" r="87.724" style="fill:#ffd919;"/><g><path d="M256.954,104.086c0,-3.838 -3.116,-6.954 -6.954,-6.954c-3.838,0 -6.954,3.116 -6.954,6.954l0,33.213c0,3.838 3.116,6.954 6.954,6.954c3.838,0 6.954,-3.116 6.954,-6.954l0,-33.213Z" style="fill:#ffd919;"/><path d="M244.718,89.93c1,-2.001 3.045,-3.265 5.282,-3.265c2.237,0 4.282,1.264 5.282,3.265c2.62,5.24 5.744,11.487 8.211,16.422c0.916,1.831 0.818,4.005 -0.258,5.746c-1.076,1.741 -2.977,2.801 -5.024,2.801c-5.09,0 -11.332,0 -16.422,0c-2.047,0 -3.948,-1.06 -5.024,-2.801c-1.076,-1.741 -1.174,-3.915 -0.258,-5.746c2.467,-4.935 5.591,-11.182 8.211,-16.422Z" style="fill:#ffd919;"/></g><g><path d="M328.979,127.112c1.919,-3.324 0.779,-7.581 -2.545,-9.5c-3.324,-1.919 -7.58,-0.778 -9.499,2.546l-16.607,28.763c-1.919,3.324 -0.778,7.58 2.546,9.499c3.324,1.919 7.58,0.779 9.499,-2.545l16.606,-28.763Z" style="fill:#ffd919;"/><path d="M325.461,108.734c1.867,-1.233 4.269,-1.305 6.206,-0.186c1.938,1.118 3.077,3.235 2.943,5.468c-0.351,5.849 -0.77,12.821 -1.1,18.328c-0.123,2.043 -1.295,3.877 -3.097,4.847c-1.803,0.969 -3.979,0.937 -5.751,-0.087c-4.408,-2.545 -9.814,-5.666 -14.222,-8.211c-1.773,-1.023 -2.889,-2.891 -2.951,-4.937c-0.061,-2.046 0.941,-3.978 2.649,-5.105c4.604,-3.04 10.433,-6.889 15.323,-10.117Z" style="fill:#ffd919;"/></g><g><path d="M379.842,183.065c3.324,-1.919 4.465,-6.175 2.546,-9.499c-1.919,-3.324 -6.176,-4.464 -9.5,-2.545l-28.763,16.606c-3.324,1.919 -4.464,6.175 -2.545,9.499c1.919,3.324 6.175,4.465 9.499,2.546l28.763,-16.607Z" style="fill:#ffd919;"/><path d="M385.984,165.39c2.233,-0.134 4.35,1.005 5.468,2.943c1.119,1.937 1.047,4.339 -0.186,6.206c-3.228,4.89 -7.077,10.719 -10.117,15.323c-1.127,1.708 -3.059,2.71 -5.105,2.649c-2.046,-0.062 -3.914,-1.178 -4.937,-2.951c-2.545,-4.408 -5.666,-9.814 -8.211,-14.222c-1.024,-1.772 -1.056,-3.948 -0.087,-5.751c0.97,-1.802 2.804,-2.974 4.847,-3.097c5.507,-0.33 12.479,-0.749 18.328,-1.1Z" style="fill:#ffd919;"/></g><g><path d="M395.914,256.954c3.838,0 6.954,-3.116 6.954,-6.954c0,-3.838 -3.116,-6.954 -6.954,-6.954l-33.213,0c-3.838,0 -6.954,3.116 -6.954,6.954c0,3.838 3.116,6.954 6.954,6.954l33.213,0Z" style="fill:#ffd919;"/><path d="M410.07,244.718c2.001,1 3.265,3.045 3.265,5.282c0,2.237 -1.264,4.282 -3.265,5.282c-5.24,2.62 -11.487,5.744 -16.422,8.211c-1.831,0.916 -4.005,0.818 -5.746,-0.258c-1.741,-1.076 -2.801,-2.977 -2.801,-5.024c0,-5.09 0,-11.332 0,-16.422c0,-2.047 1.06,-3.948 2.801,-5.024c1.741,-1.076 3.915,-1.174 5.746,-0.258c4.935,2.467 11.182,5.591 16.422,8.211Z" style="fill:#ffd919;"/></g><g><path d="M372.888,328.979c3.324,1.919 7.581,0.779 9.5,-2.545c1.919,-3.324 0.778,-7.58 -2.546,-9.499l-28.763,-16.607c-3.324,-1.919 -7.58,-0.778 -9.499,2.546c-1.919,3.324 -0.779,7.58 2.545,9.499l28.763,16.606Z" style="fill:#ffd919;"/><path d="M391.266,325.461c1.233,1.867 1.305,4.269 0.186,6.206c-1.118,1.938 -3.235,3.077 -5.468,2.943c-5.849,-0.351 -12.821,-0.77 -18.328,-1.1c-2.043,-0.123 -3.877,-1.295 -4.847,-3.097c-0.969,-1.803 -0.937,-3.979 0.087,-5.751c2.545,-4.408 5.666,-9.814 8.211,-14.222c1.023,-1.773 2.891,-2.889 4.937,-2.951c2.046,-0.061 3.978,0.941 5.105,2.649c3.04,4.604 6.889,10.433 10.117,15.323Z" style="fill:#ffd919;"/></g><g><path d="M316.935,379.842c1.919,3.324 6.175,4.465 9.499,2.546c3.324,-1.919 4.464,-6.176 2.545,-9.5l-16.606,-28.763c-1.919,-3.324 -6.175,-4.464 -9.499,-2.545c-3.324,1.919 -4.465,6.175 -2.546,9.499l16.607,28.763Z" style="fill:#ffd919;"/><path d="M334.61,385.984c0.134,2.233 -1.005,4.35 -2.943,5.468c-1.937,1.119 -4.339,1.047 -6.206,-0.186c-4.89,-3.228 -10.719,-7.077 -15.323,-10.117c-1.708,-1.127 -2.71,-3.059 -2.649,-5.105c0.062,-2.046 1.178,-3.914 2.951,-4.937c4.408,-2.545 9.814,-5.666 14.222,-8.211c1.772,-1.024 3.948,-1.056 5.751,-0.087c1.802,0.97 2.974,2.804 3.097,4.847c0.33,5.507 0.749,12.479 1.1,18.328Z" style="fill:#ffd919;"/></g><g><path d="M243.046,395.914c0,3.838 3.116,6.954 6.954,6.954c3.838,0 6.954,-3.116 6.954,-6.954l0,-33.213c0,-3.838 -3.116,-6.954 -6.954,-6.954c-3.838,0 -6.954,3.116 -6.954,6.954l0,33.213Z" style="fill:#ffd919;"/><path d="M255.282,410.07c-1,2.001 -3.045,3.265 -5.282,3.265c-2.237,0 -4.282,-1.264 -5.282,-3.265c-2.62,-5.24 -5.744,-11.487 -8.211,-16.422c-0.916,-1.831 -0.818,-4.005 0.258,-5.746c1.076,-1.741 2.977,-2.801 5.024,-2.801c5.09,0 11.332,0 16.422,0c2.047,0 3.948,1.06 5.024,2.801c1.076,1.741 1.174,3.915 0.258,5.746c-2.467,4.935 -5.591,11.182 -8.211,16.422Z" style="fill:#ffd919;"/></g><g><path d="M171.021,372.888c-1.919,3.324 -0.779,7.581 2.545,9.5c3.324,1.919 7.58,0.778 9.499,-2.546l16.607,-28.763c1.919,-3.324 0.778,-7.58 -2.546,-9.499c-3.324,-1.919 -7.58,-0.779 -9.499,2.545l-16.606,28.763Z" style="fill:#ffd919;"/><path d="M174.539,391.266c-1.867,1.233 -4.269,1.305 -6.206,0.186c-1.938,-1.118 -3.077,-3.235 -2.943,-5.468c0.351,-5.849 0.77,-12.821 1.1,-18.328c0.123,-2.043 1.295,-3.877 3.097,-4.847c1.803,-0.969 3.979,-0.937 5.751,0.087c4.408,2.545 9.814,5.666 14.222,8.211c1.773,1.023 2.889,2.891 2.951,4.937c0.061,2.046 -0.941,3.978 -2.649,5.105c-4.604,3.04 -10.433,6.889 -15.323,10.117Z" style="fill:#ffd919;"/></g><g><path d="M120.158,316.935c-3.324,1.919 -4.465,6.175 -2.546,9.499c1.919,3.324 6.176,4.464 9.5,2.545l28.763,-16.606c3.324,-1.919 4.464,-6.175 2.545,-9.499c-1.919,-3.324 -6.175,-4.465 -9.499,-2.546l-28.763,16.607Z" style="fill:#ffd919;"/><path d="M114.016,334.61c-2.233,0.134 -4.35,-1.005 -5.468,-2.943c-1.119,-1.937 -1.047,-4.339 0.186,-6.206c3.228,-4.89 7.077,-10.719 10.117,-15.323c1.127,-1.708 3.059,-2.71 5.105,-2.649c2.046,0.062 3.914,1.178 4.937,2.951c2.545,4.408 5.666,9.814 8.211,14.222c1.024,1.772 1.056,3.948 0.087,5.751c-0.97,1.802 -2.804,2.974 -4.847,3.097c-5.507,0.33 -12.479,0.749 -18.328,1.1Z" style="fill:#ffd919;"/></g><g><path d="M104.086,243.046c-3.838,0 -6.954,3.116 -6.954,6.954c0,3.838 3.116,6.954 6.954,6.954l33.213,0c3.838,0 6.954,-3.116 6.954,-6.954c0,-3.838 -3.116,-6.954 -6.954,-6.954l-33.213,0Z" style="fill:#ffd919;"/><path d="M89.93,255.282c-2.001,-1 -3.265,-3.045 -3.265,-5.282c0,-2.237 1.264,-4.282 3.265,-5.282c5.24,-2.62 11.487,-5.744 16.422,-8.211c1.831,-0.916 4.005,-0.818 5.746,0.258c1.741,1.076 2.801,2.977 2.801,5.024c0,5.09 0,11.332 0,16.422c0,2.047 -1.06,3.948 -2.801,5.024c-1.741,1.076 -3.915,1.174 -5.746,0.258c-4.935,-2.467 -11.182,-5.591 -16.422,-8.211Z" style="fill:#ffd919;"/></g><g><path d="M127.112,171.021c-3.324,-1.919 -7.581,-0.779 -9.5,2.545c-1.919,3.324 -0.778,7.58 2.546,9.499l28.763,16.607c3.324,1.919 7.58,0.778 9.499,-2.546c1.919,-3.324 0.779,-7.58 -2.545,-9.499l-28.763,-16.606Z" style="fill:#ffd919;"/><path d="M108.734,174.539c-1.233,-1.867 -1.305,-4.269 -0.186,-6.206c1.118,-1.938 3.235,-3.077 5.468,-2.943c5.849,0.351 12.821,0.77 18.328,1.1c2.043,0.123 3.877,1.295 4.847,3.097c0.969,1.803 0.937,3.979 -0.087,5.751c-2.545,4.408 -5.666,9.814 -8.211,14.222c-1.023,1.773 -2.891,2.889 -4.937,2.951c-2.046,0.061 -3.978,-0.941 -5.105,-2.649c-3.04,-4.604 -6.889,-10.433 -10.117,-15.323Z" style="fill:#ffd919;"/></g><g><path d="M183.065,120.158c-1.919,-3.324 -6.175,-4.465 -9.499,-2.546c-3.324,1.919 -4.464,6.176 -2.545,9.5l16.606,28.763c1.919,3.324 6.175,4.464 9.499,2.545c3.324,-1.919 4.465,-6.175 2.546,-9.499l-16.607,-28.763Z" style="fill:#ffd919;"/><path d="M165.39,114.016c-0.134,-2.233 1.005,-4.35 2.943,-5.468c1.937,-1.119 4.339,-1.047 6.206,0.186c4.89,3.228 10.719,7.077 15.323,10.117c1.708,1.127 2.71,3.059 2.649,5.105c-0.062,2.046 -1.178,3.914 -2.951,4.937c-4.408,2.545 -9.814,5.666 -14.222,8.211c-1.772,1.024 -3.948,1.056 -5.751,0.087c-1.802,-0.97 -2.974,-2.804 -3.097,-4.847c-0.33,-5.507 -0.749,-12.479 -1.1,-18.328Z" style="fill:#ffd919;"/></g><g><path d="M223.232,230.373c0,-2.801 -2.275,-5.076 -5.077,-5.076l-2.542,0c-2.801,0 -5.076,2.275 -5.076,5.076l0,39.254c0,2.801 2.275,5.076 5.076,5.076l2.542,0c2.802,0 5.077,-2.275 5.077,-5.076l0,-39.254Z" style="fill:#fff;"/><path d="M289.228,230.373c0,-2.801 -2.275,-5.076 -5.076,-5.076l-2.542,0c-2.802,0 -5.077,2.275 -5.077,5.076l0,39.254c0,2.801 2.275,5.076 5.077,5.076l2.542,0c2.801,0 5.076,-2.275 5.076,-5.076l0,-39.254Z" style="fill:#fff;"/></g></g></svg>