<?xml version="1.0" encoding="UTF-8" standalone="no"?><!DOCTYPE svg PUBLIC "-//W3C//DTD SVG 1.1//EN" "http://www.w3.org/Graphics/SVG/1.1/DTD/svg11.dtd"><svg width="100%" height="100%" viewBox="0 0 500 500" version="1.1" xmlns="http://www.w3.org/2000/svg" xmlns:xlink="http://www.w3.org/1999/xlink" xml:space="preserve" style="fill-rule:evenodd;clip-rule:evenodd;stroke-linejoin:round;stroke-miterlimit:1.41421;"><g id="Help"><path d="M253.622,105.503c-55.544,0 -92.977,33.407 -94.587,86.537l45.08,0c2.415,-35.017 20.125,-52.727 47.495,-52.727c26.565,0 41.457,16.502 41.457,42.262c0,21.735 -8.855,37.03 -35.822,67.218c-20.93,23.747 -28.577,38.639 -30.59,64.399l40.652,0c1.61,-20.125 8.05,-30.59 31.395,-53.13c28.578,-27.369 42.263,-50.714 42.263,-80.097c0,-43.47 -31.395,-74.462 -87.343,-74.462ZM247.183,337.745c-16.503,0 -28.175,12.075 -28.175,28.577c0,16.503 11.672,28.175 28.175,28.175c16.502,0 28.577,-11.672 28.577,-28.175c0,-16.502 -12.075,-28.577 -28.577,-28.577Z" style="fill:#ffa119;fill-rule:nonzero;"/><g><path d="M230.788,168.456c0,-2.268 -1.842,-4.11 -4.11,-4.11l-2.059,0c-2.268,0 -4.11,1.842 -4.11,4.11l0,31.784c0,2.269 1.842,4.11 4.11,4.11l2.059,0c2.268,0 4.11,-1.841 4.11,-4.11l0,-31.784Z" style="fill:#000;"/><path d="M280.296,168.456c0,-2.268 -1.842,-4.11 -4.11,-4.11l-2.059,0c-2.268,0 -4.11,1.842 -4.11,4.11l0,31.784c0,2.269 1.842,4.11 4.11,4.11l2.059,0c2.268,0 4.11,-1.841 4.11,-4.11l0,-31.784Z" style="fill:#000;"/></g></g></svg>