<?xml version="1.0" encoding="UTF-8" standalone="no"?><!DOCTYPE svg PUBLIC "-//W3C//DTD SVG 1.1//EN" "http://www.w3.org/Graphics/SVG/1.1/DTD/svg11.dtd"><svg width="100%" height="100%" viewBox="0 0 500 500" version="1.1" xmlns="http://www.w3.org/2000/svg" xmlns:xlink="http://www.w3.org/1999/xlink" xml:space="preserve" style="fill-rule:evenodd;clip-rule:evenodd;stroke-linecap:round;stroke-linejoin:round;stroke-miterlimit:1.41421;"><g><path d="M250,156.501c26.326,-34.039 78.978,-34.039 105.304,-8.532c26.327,25.508 26.327,76.523 0,127.539c-18.428,38.261 -65.815,76.523 -105.304,102.03c-39.489,-25.507 -86.876,-63.769 -105.304,-102.03c-26.326,-51.016 -26.326,-102.031 0,-127.539c26.326,-25.507 78.978,-25.507 105.304,8.532Z" style="fill:#ff1941;"/><g><path d="M219.318,198.085c0,-3.512 -2.851,-6.364 -6.364,-6.364l-3.187,0c-3.513,0 -6.365,2.852 -6.365,6.364l0,49.215c0,3.512 2.852,6.364 6.365,6.364l3.187,0c3.513,0 6.364,-2.852 6.364,-6.364l0,-49.215Z" style="fill:#fff;"/><path d="M295.977,198.085c0,-3.512 -2.852,-6.364 -6.364,-6.364l-3.188,0c-3.512,0 -6.364,2.852 -6.364,6.364l0,49.215c0,3.512 2.852,6.364 6.364,6.364l3.188,0c3.512,0 6.364,-2.852 6.364,-6.364l0,-49.215Z" style="fill:#fff;"/></g><g><path d="M185.108,274.562c6.359,-14.016 0.141,-30.558 -13.876,-36.917l-91.044,-41.3c-14.017,-6.359 -30.559,-0.141 -36.917,13.875c-6.358,14.017 -0.141,30.559 13.876,36.917l91.044,41.301c14.017,6.359 30.559,0.141 36.917,-13.876Z" style="fill:#ff1941;"/><path d="M96.605,211.962c4.037,-3.12 4.781,-8.93 1.661,-12.967l-7.061,-9.136c-3.12,-4.037 -8.931,-4.782 -12.967,-1.662c-4.037,3.12 -4.782,8.931 -1.662,12.968l7.061,9.136c3.12,4.037 8.931,4.781 12.968,1.661Z" style="fill:#ff1941;stroke-width:4.17px;stroke:#fff;"/></g><g><path d="M314.892,274.562c-6.359,-14.016 -0.141,-30.558 13.876,-36.917l91.044,-41.3c14.017,-6.359 30.559,-0.141 36.917,13.875c6.358,14.017 0.141,30.559 -13.876,36.917l-91.044,41.301c-14.017,6.359 -30.559,0.141 -36.917,-13.876Z" style="fill:#ff1941;"/><path d="M403.395,211.962c-4.037,-3.12 -4.781,-8.93 -1.661,-12.967l7.061,-9.136c3.12,-4.037 8.931,-4.782 12.967,-1.662c4.037,3.12 4.782,8.931 1.662,12.968l-7.061,9.136c-3.12,4.037 -8.931,4.781 -12.968,1.661Z" style="fill:#ff1941;stroke-width:4.17px;stroke:#fff;"/></g></g></svg>