<?xml version="1.0" encoding="UTF-8" standalone="no"?><!DOCTYPE svg PUBLIC "-//W3C//DTD SVG 1.1//EN" "http://www.w3.org/Graphics/SVG/1.1/DTD/svg11.dtd"><svg width="100%" height="100%" viewBox="0 0 500 500" version="1.1" xmlns="http://www.w3.org/2000/svg" xmlns:xlink="http://www.w3.org/1999/xlink" xml:space="preserve" style="fill-rule:evenodd;clip-rule:evenodd;stroke-linejoin:round;stroke-miterlimit:1.41421;"><g><path d="M211.089,106.462c-74.397,42.953 -99.925,138.226 -56.972,212.622c42.953,74.396 138.225,99.924 212.621,56.972c-40.478,-18.567 -87.218,-57.678 -118.263,-111.449c-31.045,-53.772 -41.546,-113.806 -37.386,-158.145Z" style="fill:#2a5dff;"/><g><path d="M179.082,237.558c-1.258,-2.18 -4.049,-2.928 -6.229,-1.669l-1.978,1.142c-2.179,1.258 -2.927,4.049 -1.669,6.229l17.631,30.538c1.259,2.179 4.05,2.927 6.23,1.669l1.977,-1.142c2.18,-1.258 2.928,-4.05 1.669,-6.229l-17.631,-30.538Z" style="fill:#fff;"/><clipPath id="_clip1"><path d="M179.082,237.558c-1.258,-2.18 -4.049,-2.928 -6.229,-1.669l-1.978,1.142c-2.179,1.258 -2.927,4.049 -1.669,6.229l17.631,30.538c1.259,2.179 4.05,2.927 6.23,1.669l1.977,-1.142c2.18,-1.258 2.928,-4.05 1.669,-6.229l-17.631,-30.538Z"/></clipPath><g clip-path="url(#_clip1)"><path d="M156.856,183.271c16.115,-6.405 35.48,4.198 43.218,23.664c7.737,19.466 0.935,40.47 -15.18,46.875c-16.114,6.406 -35.479,-4.198 -43.217,-23.663c-7.737,-19.466 -0.936,-40.47 15.179,-46.876Z" style="fill:#0030c7;"/></g><path d="M204.399,229.576c-1.258,-2.18 -4.05,-2.928 -6.229,-1.669l-1.978,1.142c-2.179,1.258 -2.927,4.049 -1.669,6.229l17.631,30.538c1.258,2.179 4.05,2.927 6.229,1.669l1.978,-1.142c2.18,-1.258 2.927,-4.05 1.669,-6.229l-17.631,-30.538Z" style="fill:#fff;"/><clipPath id="_clip2"><path d="M204.399,229.576c-1.258,-2.18 -4.05,-2.928 -6.229,-1.669l-1.978,1.142c-2.179,1.258 -2.927,4.049 -1.669,6.229l17.631,30.538c1.258,2.179 4.05,2.927 6.229,1.669l1.978,-1.142c2.18,-1.258 2.927,-4.05 1.669,-6.229l-17.631,-30.538Z"/></clipPath><g clip-path="url(#_clip2)"><path d="M184.109,173.546c14.966,-4.693 32.205,7.724 38.473,27.712c6.268,19.987 -0.794,40.025 -15.76,44.718c-14.966,4.693 -32.205,-7.724 -38.473,-27.712c-6.267,-19.987 0.795,-40.024 15.76,-44.718Z" style="fill:#0030c7;"/></g></g></g></svg>