<?xml version="1.0" encoding="UTF-8" standalone="no"?><!DOCTYPE svg PUBLIC "-//W3C//DTD SVG 1.1//EN" "http://www.w3.org/Graphics/SVG/1.1/DTD/svg11.dtd"><svg width="100%" height="100%" viewBox="0 0 500 500" version="1.1" xmlns="http://www.w3.org/2000/svg" xmlns:xlink="http://www.w3.org/1999/xlink" xml:space="preserve" style="fill-rule:evenodd;clip-rule:evenodd;stroke-linecap:round;stroke-linejoin:round;stroke-miterlimit:1.41421;"><g id="Talk"><path d="M175.226,213.083c0,-52.717 56.794,-95.517 126.748,-95.517c69.953,0 126.747,42.8 126.747,95.517c0,23.163 -11.17,45.537 -31.43,62.957l17.379,52.846l-61.661,-28.372c-16.084,5.331 -33.464,8.085 -51.035,8.085c-69.954,0 -126.748,-42.8 -126.748,-95.516Z" style="fill:#b734d4;"/><path d="M314.201,266.63c0,-52.717 -53.122,-95.516 -118.552,-95.516c-65.43,0 -118.551,42.799 -118.551,95.516c0,23.164 10.447,45.538 29.397,62.958l-16.255,52.846l57.674,-28.373c15.044,5.332 31.3,8.085 47.735,8.085c65.43,0 118.552,-42.799 118.552,-95.516Z" style="fill:#b734d4;stroke-width:14.65px;stroke:#fff;"/><g><path d="M165.162,241.929c0,-3.526 -2.862,-6.388 -6.388,-6.388l-3.2,0c-3.526,0 -6.388,2.862 -6.388,6.388l0,49.402c0,3.526 2.862,6.389 6.388,6.389l3.2,0c3.526,0 6.388,-2.863 6.388,-6.389l0,-49.402Z" style="fill:#fff;"/><path d="M242.113,241.929c0,-3.526 -2.863,-6.388 -6.389,-6.388l-3.199,0c-3.526,0 -6.389,2.862 -6.389,6.388l0,49.402c0,3.526 2.863,6.389 6.389,6.389l3.199,0c3.526,0 6.389,-2.863 6.389,-6.389l0,-49.402Z" style="fill:#fff;"/></g></g></svg>